<svg xmlns="http://www.w3.org/2000/svg" viewBox="0 0 520 360" role="img" aria-label="Phiếu giao hàng có dấu điểm chỉ"><rect width="520" height="360" fill="#FFF6EA"/><rect x="40" y="30" width="440" height="300" fill="#fff" stroke="#E7D8C2"/><g fill="#231716" transform="translate(70.0 76.0)"><path transform="translate(0.0 0) scale(0.0220 -0.0220)" d="M60 0V740H393Q488 740 551.0 703.5Q614 667 645.5 610.0Q677 553 677 490Q677 427 645.5 369.5Q614 312 551.0 275.5Q488 239 393 239H252V0ZM392 573H252V405H392Q438 405 460.5 431.5Q483 458 483 489Q483 521 460.5 547.0Q438 573 392 573Z"/><path transform="translate(16.8 0) scale(0.0220 -0.0220)" d="M60 0V740H252V462H496V740H688V0H496V298H252V0Z"/><path transform="translate(34.5 0) scale(0.0220 -0.0220)" d="M60 0V740H252V0Z"/><path transform="translate(42.7 0) scale(0.0220 -0.0220)" d="M599 929 466 930 543 1109H713ZM119 799 254 958H401L536 799H395L328 880L260 799ZM60 0V740H596V574H252V454H551V296H252V166H601V0Z"/><path transform="translate(58.5 0) scale(0.0220 -0.0220)" d="M373 -10Q316 -10 260.0 6.0Q204 22 159.0 58.0Q114 94 87.0 153.5Q60 213 60 300V740H252V300Q252 246 281.0 208.0Q310 170 373 170Q436 170 465.0 208.0Q494 246 494 300V740H686V300Q686 213 659.0 153.5Q632 94 587.0 58.0Q542 22 486.0 6.0Q430 -10 373 -10Z"/><path transform="translate(82.6 0) scale(0.0220 -0.0220)" d="M414 -10Q318 -10 246.0 22.0Q174 54 126.0 108.0Q78 162 54.0 230.0Q30 298 30 369Q30 440 54.5 508.0Q79 576 127.5 630.5Q176 685 249.0 717.5Q322 750 419 750Q496 750 551.5 731.0Q607 712 644.0 681.5Q681 651 703.5 617.0Q726 583 737.5 552.5Q749 522 753.0 503.0Q757 484 757 484H567Q567 484 561.5 499.0Q556 514 540.5 533.0Q525 552 496.0 567.0Q467 582 419 582Q356 582 313.5 551.5Q271 521 249.5 473.0Q228 425 228 372Q228 319 250.0 269.5Q272 220 315.5 188.5Q359 157 423 157Q486 157 523.5 185.5Q561 214 573 261H400V409H764V348Q764 231 719.0 151.0Q674 71 595.5 30.5Q517 -10 414 -10Z"/><path transform="translate(101.4 0) scale(0.0220 -0.0220)" d="M60 0V740H252V0Z"/><path transform="translate(109.6 0) scale(0.0220 -0.0220)" d="M20 0 266 740H525L771 0H571L532 124H259L220 0ZM310 288H481L396 561Z"/><path transform="translate(128.3 0) scale(0.0220 -0.0220)" d="M415 -10Q319 -10 247.0 22.5Q175 55 127.0 109.5Q79 164 54.5 232.0Q30 300 30 371Q30 442 54.5 509.5Q79 577 127.0 631.0Q175 685 247.0 717.5Q319 750 415 750Q511 750 583.0 717.5Q655 685 703.5 631.0Q752 577 776.0 509.5Q800 442 800 371Q800 300 776.0 232.0Q752 164 703.5 109.5Q655 55 583.0 22.5Q511 -10 415 -10ZM415 161Q477 161 518.0 191.5Q559 222 579.5 270.5Q600 319 600 371Q600 423 579.5 471.0Q559 519 518.0 549.5Q477 580 415 580Q354 580 313.0 549.5Q272 519 251.5 471.0Q231 423 231 371Q231 319 251.5 270.5Q272 222 313.0 191.5Q354 161 415 161Z"/><path transform="translate(154.3 0) scale(0.0220 -0.0220)" d="M60 0V740H252V462H496V740H688V0H496V298H252V0Z"/><path transform="translate(172.0 0) scale(0.0220 -0.0220)" d="M331 809 217 989H387L464 810ZM20 0 266 740H525L771 0H571L532 124H259L220 0ZM310 288H481L396 561Z"/><path transform="translate(190.8 0) scale(0.0220 -0.0220)" d="M60 0V740H237L510 329V740H700V0H521L250 390V0Z"/><path transform="translate(208.8 0) scale(0.0220 -0.0220)" d="M414 -10Q318 -10 246.0 22.0Q174 54 126.0 108.0Q78 162 54.0 230.0Q30 298 30 369Q30 440 54.5 508.0Q79 576 127.5 630.5Q176 685 249.0 717.5Q322 750 419 750Q496 750 551.5 731.0Q607 712 644.0 681.5Q681 651 703.5 617.0Q726 583 737.5 552.5Q749 522 753.0 503.0Q757 484 757 484H567Q567 484 561.5 499.0Q556 514 540.5 533.0Q525 552 496.0 567.0Q467 582 419 582Q356 582 313.5 551.5Q271 521 249.5 473.0Q228 425 228 372Q228 319 250.0 269.5Q272 220 315.5 188.5Q359 157 423 157Q486 157 523.5 185.5Q561 214 573 261H400V409H764V348Q764 231 719.0 151.0Q674 71 595.5 30.5Q517 -10 414 -10Z"/></g><g fill="#231716" transform="translate(70.0 98.0)"><path transform="translate(0.0 0) scale(0.0120 -0.0120)" d="M328 -10Q264 -10 218.5 6.5Q173 23 143.0 49.5Q113 76 95.0 105.0Q77 134 68.0 160.5Q59 187 56.5 203.5Q54 220 54 220H154Q154 220 157.0 206.0Q160 192 169.5 171.0Q179 150 198.0 128.5Q217 107 249.0 93.0Q281 79 330 79Q404 79 447.0 114.5Q490 150 490 207Q490 256 457.5 283.0Q425 310 365 325L267 349Q215 362 170.5 385.5Q126 409 99.5 447.5Q73 486 73 544Q73 609 105.0 655.0Q137 701 192.0 725.5Q247 750 317 750Q385 750 430.0 729.0Q475 708 502.0 677.5Q529 647 542.0 616.5Q555 586 559.0 565.0Q563 544 563 544H467Q467 544 463.0 562.0Q459 580 444.0 603.5Q429 627 398.0 645.0Q367 663 314 663Q242 663 205.5 629.0Q169 595 169 551Q169 511 198.0 486.5Q227 462 278 449L384 423Q441 409 487.0 382.5Q533 356 560.0 314.5Q587 273 587 213Q587 153 557.5 102.0Q528 51 470.5 20.5Q413 -10 328 -10Z"/><path transform="translate(7.6 0) scale(0.0120 -0.0120)" d="M518 735 437 736 523 916H621ZM164 607 285 754H366L487 607H401L325 699L250 607ZM326 -10Q241 -10 183.0 29.5Q125 69 95.0 132.0Q65 195 65 265Q65 336 95.0 398.5Q125 461 183.0 500.5Q241 540 326 540Q411 540 469.0 500.5Q527 461 557.0 398.5Q587 336 587 265Q587 195 557.0 132.0Q527 69 469.0 29.5Q411 -10 326 -10ZM326 73Q380 73 416.5 100.5Q453 128 471.5 172.0Q490 216 490 265Q490 315 471.5 358.5Q453 402 416.5 429.5Q380 457 326 457Q273 457 236.0 429.5Q199 402 180.5 358.5Q162 315 162 265Q162 216 180.5 172.0Q199 128 236.0 100.5Q273 73 326 73Z"/><path transform="translate(15.4 0) scale(0.0120 -0.0120)" d="M143 410Q115 410 96.5 429.5Q78 449 78 475Q78 502 96.5 521.0Q115 540 143 540Q171 540 189.5 521.0Q208 502 208 475Q208 448 189.5 429.0Q171 410 143 410ZM143 -10Q115 -10 96.5 9.5Q78 29 78 55Q78 82 96.5 101.0Q115 120 143 120Q171 120 189.5 101.0Q208 82 208 55Q208 28 189.5 9.0Q171 -10 143 -10Z"/><path transform="translate(21.6 0) scale(0.0120 -0.0120)" d="M80 -200V836H379V752H176V-116H379V-200Z"/><path transform="translate(27.1 0) scale(0.0120 -0.0120)" d="M405 -10Q318 -10 252.0 22.5Q186 55 142.5 109.5Q99 164 77.0 231.5Q55 299 55 370Q55 441 77.0 509.0Q99 577 142.5 631.5Q186 686 252.0 718.0Q318 750 405 750Q477 750 528.5 731.5Q580 713 614.5 684.0Q649 655 670.5 622.0Q692 589 702.5 560.0Q713 531 716.5 512.5Q720 494 720 494H622Q622 494 618.0 510.5Q614 527 602.0 551.5Q590 576 566.0 601.0Q542 626 503.0 642.5Q464 659 406 659Q343 659 296.0 634.5Q249 610 217.5 568.5Q186 527 170.5 475.5Q155 424 155 370Q155 316 170.5 264.5Q186 213 217.5 171.5Q249 130 296.0 105.5Q343 81 406 81Q464 81 503.0 98.0Q542 115 566.0 139.5Q590 164 602.0 188.5Q614 213 618.0 230.0Q622 247 622 247H720Q720 247 716.5 228.5Q713 210 702.5 180.5Q692 151 670.5 118.5Q649 86 614.5 56.5Q580 27 528.5 8.5Q477 -10 405 -10Z"/><path transform="translate(36.4 0) scale(0.0120 -0.0120)" d="M464 734 361 915H459L545 735ZM166 606 287 753H368L489 606H403L327 698L252 606ZM305 540Q355 540 389.0 524.0Q423 508 444.0 486.5Q465 465 476 446H482V530H577V0H482V84H476Q465 65 444.0 43.0Q423 21 389.0 5.5Q355 -10 305 -10Q245 -10 200.0 13.5Q155 37 125.0 76.5Q95 116 80.0 165.0Q65 214 65 265Q65 316 80.0 365.0Q95 414 125.0 453.5Q155 493 200.0 516.5Q245 540 305 540ZM321 459Q268 459 232.0 430.5Q196 402 178.5 358.0Q161 314 161 265Q161 217 178.5 172.5Q196 128 232.0 99.5Q268 71 321 71Q374 71 409.5 99.5Q445 128 462.5 172.5Q480 217 480 265Q480 314 462.5 358.0Q445 402 409.5 430.5Q374 459 321 459Z"/><path transform="translate(44.3 0) scale(0.0120 -0.0120)" d="M70 0V530H165V453H171Q178 465 194.5 486.0Q211 507 242.0 523.5Q273 540 320 540Q378 540 419.0 513.5Q460 487 481.5 442.0Q503 397 503 341V0H408V335Q408 388 378.5 423.0Q349 458 293 458Q248 458 220.0 435.5Q192 413 178.5 376.5Q165 340 165 299V0Z"/><path transform="translate(53.9 0) scale(0.0120 -0.0120)" d="M300 -10Q240 -10 195.0 13.5Q150 37 120.0 76.5Q90 116 75.0 165.0Q60 214 60 265Q60 316 75.0 365.0Q90 414 120.0 453.5Q150 493 195.0 516.5Q240 540 300 540Q350 540 384.0 524.0Q418 508 439.0 486.5Q460 465 471 446H477V588H338V664H477V760H572V664H663V588H572V0H477V84H471Q460 65 439.0 43.0Q418 21 384.0 5.5Q350 -10 300 -10ZM316 71Q369 71 404.5 99.5Q440 128 457.5 172.5Q475 217 475 265Q475 314 457.5 358.0Q440 402 404.5 430.5Q369 459 316 459Q263 459 227.0 430.5Q191 402 173.5 358.0Q156 314 156 265Q156 217 173.5 172.5Q191 128 227.0 99.5Q263 71 316 71Z"/><path transform="translate(61.9 0) scale(0.0120 -0.0120)" d="M132 631Q105 631 87.5 649.0Q70 667 70 692Q70 718 87.5 736.0Q105 754 132 754Q158 754 176.0 736.0Q194 718 194 692Q194 667 176.0 649.0Q158 631 132 631ZM85 0V530H180V0Z"/><path transform="translate(65.0 0) scale(0.0120 -0.0120)" d="M449 733 346 914H444L530 734ZM151 605 272 752H353L474 605H388L312 697L237 605ZM316 -10Q251 -10 203.5 13.5Q156 37 125.5 77.0Q95 117 80.0 165.5Q65 214 65 265Q65 315 79.5 364.0Q94 413 124.5 453.0Q155 493 201.5 516.5Q248 540 312 540Q380 540 432.0 509.0Q484 478 514.0 417.0Q544 356 544 264V236H161Q164 191 182.5 153.5Q201 116 235.0 93.5Q269 71 316 71Q357 71 382.5 84.5Q408 98 423.0 116.0Q438 134 443.5 147.5Q449 161 449 161H538Q538 161 533.0 143.5Q528 126 515.0 101.0Q502 76 477.0 50.5Q452 25 413.0 7.5Q374 -10 316 -10ZM162 310H451Q449 362 429.0 394.5Q409 427 378.0 443.0Q347 459 312 459Q249 459 209.0 418.5Q169 378 162 310Z"/><path transform="translate(72.3 0) scale(0.0120 -0.0120)" d="M70 0V530H165V453H171Q178 465 194.5 486.0Q211 507 242.0 523.5Q273 540 320 540Q378 540 419.0 513.5Q460 487 481.5 442.0Q503 397 503 341V0H408V335Q408 388 378.5 423.0Q349 458 293 458Q248 458 220.0 435.5Q192 413 178.5 376.5Q165 340 165 299V0Z"/><path transform="translate(79.2 0) scale(0.0120 -0.0120)" d="M379 836V-200H80V-116H283V752H80V836Z"/><path transform="translate(87.5 0) scale(0.0120 -0.0120)" d="M157 328Q129 328 110.5 347.5Q92 367 92 393Q92 420 110.5 439.0Q129 458 157 458Q185 458 203.5 439.0Q222 420 222 393Q222 366 203.5 347.0Q185 328 157 328Z"/><path transform="translate(93.3 0) scale(0.0120 -0.0120)" d="M80 0V740H168L554 177V740H652V0H564L178 562V0Z"/><path transform="translate(102.1 0) scale(0.0120 -0.0120)" d="M325 -210Q259 -210 215.0 -192.5Q171 -175 144.5 -148.5Q118 -122 105.0 -96.0Q92 -70 88.0 -52.5Q84 -35 84 -35H179Q179 -35 184.0 -49.0Q189 -63 203.5 -81.0Q218 -99 247.0 -113.0Q276 -127 325 -127Q383 -127 416.0 -104.5Q449 -82 463.5 -46.0Q478 -10 478 30V91H473Q463 74 441.5 52.5Q420 31 385.0 15.5Q350 0 299 0Q239 0 194.0 23.0Q149 46 119.5 85.0Q90 124 75.0 172.0Q60 220 60 270Q60 320 75.0 368.0Q90 416 119.5 455.0Q149 494 194.0 517.0Q239 540 299 540Q350 540 385.0 524.5Q420 509 441.5 488.0Q463 467 473 449H478V530H573V31Q573 -80 508.5 -145.0Q444 -210 325 -210ZM317 81Q370 81 405.5 108.5Q441 136 458.5 179.0Q476 222 476 270Q476 318 458.5 361.5Q441 405 405.5 432.0Q370 459 317 459Q264 459 228.0 432.0Q192 405 174.5 361.5Q157 318 157 270Q157 222 174.5 179.0Q192 136 228.0 108.5Q264 81 317 81Z"/><path transform="translate(109.8 0) scale(0.0120 -0.0120)" d="M291 610 188 791H286L372 611ZM305 540Q355 540 389.0 524.0Q423 508 444.0 486.5Q465 465 476 446H482V530H577V0H482V84H476Q465 65 444.0 43.0Q423 21 389.0 5.5Q355 -10 305 -10Q245 -10 200.0 13.5Q155 37 125.0 76.5Q95 116 80.0 165.0Q65 214 65 265Q65 316 80.0 365.0Q95 414 125.0 453.5Q155 493 200.0 516.5Q245 540 305 540ZM321 459Q268 459 232.0 430.5Q196 402 178.5 358.0Q161 314 161 265Q161 217 178.5 172.5Q196 128 232.0 99.5Q268 71 321 71Q374 71 409.5 99.5Q445 128 462.5 172.5Q480 217 480 265Q480 314 462.5 358.0Q445 402 409.5 430.5Q374 459 321 459Z"/><path transform="translate(117.6 0) scale(0.0120 -0.0120)" d="M90 -195Q67 -195 51.0 -193.0Q35 -191 35 -191V-110Q35 -110 51.5 -111.5Q68 -113 87 -113Q146 -113 183.5 -88.5Q221 -64 247 -8L42 530H141L294 116L448 530H548L343 -1Q304 -101 242.5 -148.0Q181 -195 90 -195Z"/><path transform="translate(124.6 0) scale(0.0120 -0.0120)" d="M143 410Q115 410 96.5 429.5Q78 449 78 475Q78 502 96.5 521.0Q115 540 143 540Q171 540 189.5 521.0Q208 502 208 475Q208 448 189.5 429.0Q171 410 143 410ZM143 -10Q115 -10 96.5 9.5Q78 29 78 55Q78 82 96.5 101.0Q115 120 143 120Q171 120 189.5 101.0Q208 82 208 55Q208 28 189.5 9.0Q171 -10 143 -10Z"/><path transform="translate(130.8 0) scale(0.0120 -0.0120)" d="M80 -200V836H379V752H176V-116H379V-200Z"/><path transform="translate(136.3 0) scale(0.0120 -0.0120)" d="M405 -10Q318 -10 252.0 22.5Q186 55 142.5 109.5Q99 164 77.0 231.5Q55 299 55 370Q55 441 77.0 509.0Q99 577 142.5 631.5Q186 686 252.0 718.0Q318 750 405 750Q477 750 528.5 731.5Q580 713 614.5 684.0Q649 655 670.5 622.0Q692 589 702.5 560.0Q713 531 716.5 512.5Q720 494 720 494H622Q622 494 618.0 510.5Q614 527 602.0 551.5Q590 576 566.0 601.0Q542 626 503.0 642.5Q464 659 406 659Q343 659 296.0 634.5Q249 610 217.5 568.5Q186 527 170.5 475.5Q155 424 155 370Q155 316 170.5 264.5Q186 213 217.5 171.5Q249 130 296.0 105.5Q343 81 406 81Q464 81 503.0 98.0Q542 115 566.0 139.5Q590 164 602.0 188.5Q614 213 618.0 230.0Q622 247 622 247H720Q720 247 716.5 228.5Q713 210 702.5 180.5Q692 151 670.5 118.5Q649 86 614.5 56.5Q580 27 528.5 8.5Q477 -10 405 -10Z"/><path transform="translate(145.6 0) scale(0.0120 -0.0120)" d="M464 734 361 915H459L545 735ZM166 606 287 753H368L489 606H403L327 698L252 606ZM305 540Q355 540 389.0 524.0Q423 508 444.0 486.5Q465 465 476 446H482V530H577V0H482V84H476Q465 65 444.0 43.0Q423 21 389.0 5.5Q355 -10 305 -10Q245 -10 200.0 13.5Q155 37 125.0 76.5Q95 116 80.0 165.0Q65 214 65 265Q65 316 80.0 365.0Q95 414 125.0 453.5Q155 493 200.0 516.5Q245 540 305 540ZM321 459Q268 459 232.0 430.5Q196 402 178.5 358.0Q161 314 161 265Q161 217 178.5 172.5Q196 128 232.0 99.5Q268 71 321 71Q374 71 409.5 99.5Q445 128 462.5 172.5Q480 217 480 265Q480 314 462.5 358.0Q445 402 409.5 430.5Q374 459 321 459Z"/><path transform="translate(153.5 0) scale(0.0120 -0.0120)" d="M70 0V530H165V453H171Q178 465 194.5 486.0Q211 507 242.0 523.5Q273 540 320 540Q378 540 419.0 513.5Q460 487 481.5 442.0Q503 397 503 341V0H408V335Q408 388 378.5 423.0Q349 458 293 458Q248 458 220.0 435.5Q192 413 178.5 376.5Q165 340 165 299V0Z"/><path transform="translate(163.1 0) scale(0.0120 -0.0120)" d="M300 -10Q240 -10 195.0 13.5Q150 37 120.0 76.5Q90 116 75.0 165.0Q60 214 60 265Q60 316 75.0 365.0Q90 414 120.0 453.5Q150 493 195.0 516.5Q240 540 300 540Q350 540 384.0 524.0Q418 508 439.0 486.5Q460 465 471 446H477V588H338V664H477V760H572V664H663V588H572V0H477V84H471Q460 65 439.0 43.0Q418 21 384.0 5.5Q350 -10 300 -10ZM316 71Q369 71 404.5 99.5Q440 128 457.5 172.5Q475 217 475 265Q475 314 457.5 358.0Q440 402 404.5 430.5Q369 459 316 459Q263 459 227.0 430.5Q191 402 173.5 358.0Q156 314 156 265Q156 217 173.5 172.5Q191 128 227.0 99.5Q263 71 316 71Z"/><path transform="translate(171.0 0) scale(0.0120 -0.0120)" d="M132 631Q105 631 87.5 649.0Q70 667 70 692Q70 718 87.5 736.0Q105 754 132 754Q158 754 176.0 736.0Q194 718 194 692Q194 667 176.0 649.0Q158 631 132 631ZM85 0V530H180V0Z"/><path transform="translate(174.2 0) scale(0.0120 -0.0120)" d="M449 733 346 914H444L530 734ZM151 605 272 752H353L474 605H388L312 697L237 605ZM316 -10Q251 -10 203.5 13.5Q156 37 125.5 77.0Q95 117 80.0 165.5Q65 214 65 265Q65 315 79.5 364.0Q94 413 124.5 453.0Q155 493 201.5 516.5Q248 540 312 540Q380 540 432.0 509.0Q484 478 514.0 417.0Q544 356 544 264V236H161Q164 191 182.5 153.5Q201 116 235.0 93.5Q269 71 316 71Q357 71 382.5 84.5Q408 98 423.0 116.0Q438 134 443.5 147.5Q449 161 449 161H538Q538 161 533.0 143.5Q528 126 515.0 101.0Q502 76 477.0 50.5Q452 25 413.0 7.5Q374 -10 316 -10ZM162 310H451Q449 362 429.0 394.5Q409 427 378.0 443.0Q347 459 312 459Q249 459 209.0 418.5Q169 378 162 310Z"/><path transform="translate(181.5 0) scale(0.0120 -0.0120)" d="M70 0V530H165V453H171Q178 465 194.5 486.0Q211 507 242.0 523.5Q273 540 320 540Q378 540 419.0 513.5Q460 487 481.5 442.0Q503 397 503 341V0H408V335Q408 388 378.5 423.0Q349 458 293 458Q248 458 220.0 435.5Q192 413 178.5 376.5Q165 340 165 299V0Z"/><path transform="translate(188.4 0) scale(0.0120 -0.0120)" d="M379 836V-200H80V-116H283V752H80V836Z"/></g><path d="M70,150 H450" stroke="#EDE2D2"/><g fill="#231716" transform="translate(70.0 140.0)"><path transform="translate(0.0 0) scale(0.0150 -0.0150)" d="M72 0V740H395Q466 740 516.0 715.0Q566 690 592.5 648.0Q619 606 619 556Q619 505 600.5 472.0Q582 439 556.5 420.5Q531 402 510 395V388Q536 381 568.5 361.0Q601 341 625.0 304.5Q649 268 649 210Q649 158 624.0 109.5Q599 61 545.0 30.5Q491 0 402 0ZM377 625H208V432H377Q435 432 461.0 461.0Q487 490 487 529Q487 567 461.0 596.0Q435 625 377 625ZM387 328H208V115H387Q453 115 483.0 147.0Q513 179 513 222Q513 264 483.0 296.0Q453 328 387 328Z"/><path transform="translate(10.5 0) scale(0.0150 -0.0150)" d="M381 606 280 607 362 786H489ZM292 540Q343 540 376.0 523.5Q409 507 428.0 487.5Q447 468 454 456H460V530H593V0H460V74H454Q447 62 428.0 42.0Q409 22 376.0 6.0Q343 -10 292 -10Q233 -10 189.0 13.5Q145 37 115.5 76.5Q86 116 71.5 165.0Q57 214 57 265Q57 316 71.5 365.0Q86 414 115.5 453.5Q145 493 189.0 516.5Q233 540 292 540ZM327 431Q282 431 251.5 406.5Q221 382 206.0 344.0Q191 306 191 265Q191 224 206.0 186.0Q221 148 251.5 123.5Q282 99 327 99Q372 99 402.0 123.5Q432 148 447.0 186.0Q462 224 462 265Q462 306 447.0 344.0Q432 382 402.0 406.5Q372 431 327 431Z"/><path transform="translate(20.4 0) scale(0.0150 -0.0150)" d="M62 0V530H195V454H201Q209 468 226.0 488.5Q243 509 273.0 524.5Q303 540 349 540Q410 540 449.5 512.5Q489 485 508.5 440.0Q528 395 528 343V0H395V325Q395 368 371.0 399.0Q347 430 299 430Q262 430 239.0 411.5Q216 393 205.5 364.0Q195 335 195 303V0Z"/><path transform="translate(29.2 0) scale(0.0150 -0.0150)" d="M72 0V760H205V454H211Q219 468 236.0 488.5Q253 509 283.0 524.5Q313 540 359 540Q420 540 459.5 512.5Q499 485 518.5 440.0Q538 395 538 343V0H405V325Q405 368 381.0 399.0Q357 430 309 430Q272 430 249.0 411.5Q226 393 215.5 364.0Q205 335 205 303V0Z"/><path transform="translate(41.7 0) scale(0.0150 -0.0150)" d="M301 -10Q247 -10 212.0 6.0Q177 22 157.5 48.0Q138 74 130.0 105.0Q122 136 122 166V423H31V530H122V662H255V530H374V423H255V169Q255 98 335 98Q354 98 370.5 100.5Q387 103 387 103V-1Q387 -1 361.5 -5.5Q336 -10 301 -10Z"/><path transform="translate(48.2 0) scale(0.0150 -0.0150)" d="M326 -10Q239 -10 178.0 29.0Q117 68 85.5 130.5Q54 193 54 265Q54 337 85.5 399.5Q117 462 178.0 501.0Q239 540 326 540Q414 540 474.5 501.0Q535 462 566.5 399.5Q598 337 598 265Q598 193 566.5 130.5Q535 68 474.5 29.0Q414 -10 326 -10ZM326 101Q371 101 401.5 124.0Q432 147 448.0 184.5Q464 222 464 265Q464 309 448.0 346.0Q432 383 401.5 406.0Q371 429 326 429Q282 429 251.0 406.0Q220 383 204.0 346.0Q188 309 188 265Q188 222 204.0 184.5Q220 147 251.0 124.0Q282 101 326 101Z"/><path transform="translate(58.0 0) scale(0.0150 -0.0150)" d="M62 0V530H194V457H199Q213 488 245.0 514.0Q277 540 341 540Q361 540 374.0 537.5Q387 535 387 535V406Q387 406 372.5 408.0Q358 410 337 410Q267 410 231.0 371.0Q195 332 195 245V0Z"/><path transform="translate(64.2 0) scale(0.0150 -0.0150)" d="M301 -10Q247 -10 212.0 6.0Q177 22 157.5 48.0Q138 74 130.0 105.0Q122 136 122 166V423H31V530H122V662H255V530H374V423H255V169Q255 98 335 98Q354 98 370.5 100.5Q387 103 387 103V-1Q387 -1 361.5 -5.5Q336 -10 301 -10Z"/><path transform="translate(70.7 0) scale(0.0150 -0.0150)" d="M142 612Q107 612 84.5 635.0Q62 658 62 690Q62 722 84.5 745.0Q107 768 142 768Q177 768 200.0 745.0Q223 722 223 690Q223 658 200.0 635.0Q177 612 142 612ZM76 0V530H209V0Z"/><path transform="translate(75.0 0) scale(0.0150 -0.0150)" d="M72 0 73 760H205V0Z"/><path transform="translate(79.1 0) scale(0.0150 -0.0150)" d="M72 0 73 760H205V0Z"/><path transform="translate(83.3 0) scale(0.0150 -0.0150)" d="M289 540Q340 540 373.0 523.5Q406 507 425.0 487.5Q444 468 451 456H457V530H590V0H457V74H451Q444 62 425.0 42.0Q406 22 373.0 6.0Q340 -10 289 -10Q230 -10 186.0 13.5Q142 37 112.5 76.5Q83 116 68.5 165.0Q54 214 54 265Q54 316 68.5 365.0Q83 414 112.5 453.5Q142 493 186.0 516.5Q230 540 289 540ZM324 431Q279 431 248.5 406.5Q218 382 203.0 344.0Q188 306 188 265Q188 224 203.0 186.0Q218 148 248.5 123.5Q279 99 324 99Q369 99 399.0 123.5Q429 148 444.0 186.0Q459 224 459 265Q459 306 444.0 344.0Q429 382 399.0 406.5Q369 431 324 431Z"/><path transform="translate(96.5 0) scale(0.0150 -0.0150)" d="M317 740V0H183V544H42V625L65 632Q124 649 161.0 671.0Q198 693 231 731L240 740Z"/><path transform="translate(102.8 0) scale(0.0150 -0.0150)" d="M346 -9Q274 -9 217.5 21.0Q161 51 123.0 103.5Q85 156 65.0 224.5Q45 293 45 371Q45 448 65.0 517.0Q85 586 123.0 638.5Q161 691 217.5 721.0Q274 751 346 751Q418 751 474.5 721.0Q531 691 569.0 638.5Q607 586 627.0 517.0Q647 448 647 371Q647 293 627.0 224.5Q607 156 569.0 103.5Q531 51 474.5 21.0Q418 -9 346 -9ZM346 112Q416 112 461.5 177.0Q507 242 507 371Q507 499 461.5 563.5Q416 628 346 628Q276 628 230.5 563.5Q185 499 185 371Q185 243 230.5 177.5Q276 112 346 112Z"/><path transform="translate(116.6 0) scale(0.0150 -0.0150)" d="M142 612Q107 612 84.5 635.0Q62 658 62 690Q62 722 84.5 745.0Q107 768 142 768Q177 768 200.0 745.0Q223 722 223 690Q223 658 200.0 635.0Q177 612 142 612ZM76 0V530H209V0Z"/><path transform="translate(120.9 0) scale(0.0150 -0.0150)" d="M62 0V530H195V454H201Q209 468 226.0 488.5Q243 509 273.0 524.5Q303 540 349 540Q410 540 449.5 512.5Q489 485 508.5 440.0Q528 395 528 343V0H395V325Q395 368 371.0 399.0Q347 430 299 430Q262 430 239.0 411.5Q216 393 205.5 364.0Q195 335 195 303V0Z"/><path transform="translate(129.7 0) scale(0.0150 -0.0150)" d="M325 -10Q257 -10 206.0 13.5Q155 37 121.0 76.5Q87 116 70.5 165.0Q54 214 54 265Q54 316 70.5 365.0Q87 414 120.5 453.5Q154 493 205.0 516.5Q256 540 325 540Q393 540 438.0 520.0Q483 500 509.5 470.0Q536 440 549.0 410.5Q562 381 566.0 361.0Q570 341 570 341H445Q445 341 441.0 354.5Q437 368 425.0 386.0Q413 404 389.5 418.0Q366 432 327 432Q281 432 249.5 408.5Q218 385 202.0 347.0Q186 309 186 265Q186 221 202.0 183.0Q218 145 249.5 121.5Q281 98 327 98Q366 98 389.5 112.0Q413 126 425.0 144.0Q437 162 441.0 175.5Q445 189 445 189H570Q570 189 566.0 169.0Q562 149 549.0 119.5Q536 90 509.5 60.0Q483 30 438.0 10.0Q393 -10 325 -10Z"/><path transform="translate(139.1 0) scale(0.0150 -0.0150)" d="M72 0V760H205V454H211Q219 468 236.0 488.5Q253 509 283.0 524.5Q313 540 359 540Q420 540 459.5 512.5Q499 485 518.5 440.0Q538 395 538 343V0H405V325Q405 368 381.0 399.0Q357 430 309 430Q272 430 249.0 411.5Q226 393 215.5 364.0Q205 335 205 303V0Z"/></g><g fill="#D2141E" transform="translate(421.8 140.0)"><path transform="translate(0.0 0) scale(0.0150 -0.0150)" d="M64 -217V858H423V712H239V-71H423V-217Z"/><path transform="translate(7.8 0) scale(0.0150 -0.0150)" d="M287 -10Q219 -10 174.5 8.0Q130 26 104.0 53.0Q78 80 65.0 107.0Q52 134 48.0 152.0Q44 170 44 170H200Q200 170 203.5 161.5Q207 153 216.5 141.5Q226 130 245.0 121.5Q264 113 296 113Q335 113 347.0 128.0Q359 143 359 155Q359 185 308 195L235 208Q187 216 145.0 234.0Q103 252 77.0 284.0Q51 316 51 367Q51 416 76.5 455.0Q102 494 150.5 517.0Q199 540 268 540Q331 540 373.0 523.0Q415 506 440.0 481.0Q465 456 477.0 431.0Q489 406 493.0 389.0Q497 372 497 372H346Q346 372 340.0 384.0Q334 396 316.5 408.0Q299 420 264 420Q229 420 216.0 406.5Q203 393 203 379Q203 361 220.0 352.5Q237 344 263 339L330 326Q409 311 459.5 273.5Q510 236 510 164Q510 90 452.5 40.0Q395 -10 287 -10Z"/><path transform="translate(16.0 0) scale(0.0150 -0.0150)" d="M64 0V760H235V0Z"/><path transform="translate(20.5 0) scale(0.0150 -0.0150)" d="M455 858V-217H96V-71H280V712H96V858Z"/></g><path d="M70,184 H450" stroke="#EDE2D2"/><g fill="#231716" transform="translate(70.0 174.0)"><path transform="translate(0.0 0) scale(0.0150 -0.0150)" d="M277 0 22 740H164L366 138L568 740H710L454 0Z"/><path transform="translate(11.0 0) scale(0.0150 -0.0150)" d="M288 596V629Q288 641 293.0 652.0Q298 663 311 669L326 677Q348 688 359.0 699.0Q370 710 370 725Q370 738 360.0 748.5Q350 759 331 759Q312 759 303.5 750.0Q295 741 292.5 731.5Q290 722 290 718H210Q209 744 221.5 769.5Q234 795 260.5 812.0Q287 829 330 829Q388 829 421.5 799.0Q455 769 455 728Q455 695 433.0 670.5Q411 646 372 627L368 625V596ZM328 -10Q240 -10 179.5 29.0Q119 68 87.5 130.5Q56 193 56 265Q56 337 87.5 399.5Q119 462 179.5 501.0Q240 540 328 540Q416 540 476.5 501.0Q537 462 568.5 399.5Q600 337 600 265Q600 193 568.5 130.5Q537 68 476.5 29.0Q416 -10 328 -10ZM328 101Q372 101 403.0 124.0Q434 147 450.0 184.5Q466 222 466 265Q466 309 450.0 346.0Q434 383 403.0 406.0Q372 429 328 429Q284 429 253.0 406.0Q222 383 206.0 346.0Q190 309 190 265Q190 222 206.0 184.5Q222 147 253.0 124.0Q284 101 328 101Z"/><path transform="translate(24.3 0) scale(0.0150 -0.0150)" d="M301 -10Q247 -10 212.0 6.0Q177 22 157.5 48.0Q138 74 130.0 105.0Q122 136 122 166V423H31V530H122V662H255V530H374V423H255V169Q255 98 335 98Q354 98 370.5 100.5Q387 103 387 103V-1Q387 -1 361.5 -5.5Q336 -10 301 -10Z"/><path transform="translate(30.8 0) scale(0.0150 -0.0150)" d="M289 540Q340 540 373.0 523.5Q406 507 425.0 487.5Q444 468 451 456H457V530H590V0H457V74H451Q444 62 425.0 42.0Q406 22 373.0 6.0Q340 -10 289 -10Q230 -10 186.0 13.5Q142 37 112.5 76.5Q83 116 68.5 165.0Q54 214 54 265Q54 316 68.5 365.0Q83 414 112.5 453.5Q142 493 186.0 516.5Q230 540 289 540ZM324 431Q279 431 248.5 406.5Q218 382 203.0 344.0Q188 306 188 265Q188 224 203.0 186.0Q218 148 248.5 123.5Q279 99 324 99Q369 99 399.0 123.5Q429 148 444.0 186.0Q459 224 459 265Q459 306 444.0 344.0Q429 382 399.0 406.5Q369 431 324 431Z"/><path transform="translate(40.6 0) scale(0.0150 -0.0150)" d="M325 -10Q257 -10 206.0 13.5Q155 37 121.0 76.5Q87 116 70.5 165.0Q54 214 54 265Q54 316 70.5 365.0Q87 414 120.5 453.5Q154 493 205.0 516.5Q256 540 325 540Q393 540 438.0 520.0Q483 500 509.5 470.0Q536 440 549.0 410.5Q562 381 566.0 361.0Q570 341 570 341H445Q445 341 441.0 354.5Q437 368 425.0 386.0Q413 404 389.5 418.0Q366 432 327 432Q281 432 249.5 408.5Q218 385 202.0 347.0Q186 309 186 265Q186 221 202.0 183.0Q218 145 249.5 121.5Q281 98 327 98Q366 98 389.5 112.0Q413 126 425.0 144.0Q437 162 441.0 175.5Q445 189 445 189H570Q570 189 566.0 169.0Q562 149 549.0 119.5Q536 90 509.5 60.0Q483 30 438.0 10.0Q393 -10 325 -10Z"/><path transform="translate(49.9 0) scale(0.0150 -0.0150)" d="M326 -10Q239 -10 178.0 29.0Q117 68 85.5 130.5Q54 193 54 265Q54 337 85.5 399.5Q117 462 178.0 501.0Q239 540 326 540Q414 540 474.5 501.0Q535 462 566.5 399.5Q598 337 598 265Q598 193 566.5 130.5Q535 68 474.5 29.0Q414 -10 326 -10ZM326 101Q371 101 401.5 124.0Q432 147 448.0 184.5Q464 222 464 265Q464 309 448.0 346.0Q432 383 401.5 406.0Q371 429 326 429Q282 429 251.0 406.0Q220 383 204.0 346.0Q188 309 188 265Q188 222 204.0 184.5Q220 147 251.0 124.0Q282 101 326 101Z"/></g><g fill="#D2141E" transform="translate(421.8 174.0)"><path transform="translate(0.0 0) scale(0.0150 -0.0150)" d="M64 -217V858H423V712H239V-71H423V-217Z"/><path transform="translate(7.8 0) scale(0.0150 -0.0150)" d="M287 -10Q219 -10 174.5 8.0Q130 26 104.0 53.0Q78 80 65.0 107.0Q52 134 48.0 152.0Q44 170 44 170H200Q200 170 203.5 161.5Q207 153 216.5 141.5Q226 130 245.0 121.5Q264 113 296 113Q335 113 347.0 128.0Q359 143 359 155Q359 185 308 195L235 208Q187 216 145.0 234.0Q103 252 77.0 284.0Q51 316 51 367Q51 416 76.5 455.0Q102 494 150.5 517.0Q199 540 268 540Q331 540 373.0 523.0Q415 506 440.0 481.0Q465 456 477.0 431.0Q489 406 493.0 389.0Q497 372 497 372H346Q346 372 340.0 384.0Q334 396 316.5 408.0Q299 420 264 420Q229 420 216.0 406.5Q203 393 203 379Q203 361 220.0 352.5Q237 344 263 339L330 326Q409 311 459.5 273.5Q510 236 510 164Q510 90 452.5 40.0Q395 -10 287 -10Z"/><path transform="translate(16.0 0) scale(0.0150 -0.0150)" d="M64 0V760H235V0Z"/><path transform="translate(20.5 0) scale(0.0150 -0.0150)" d="M455 858V-217H96V-71H280V712H96V858Z"/></g><path d="M70,218 H450" stroke="#EDE2D2"/><g fill="#231716" transform="translate(70.0 208.0)"><path transform="translate(0.0 0) scale(0.0150 -0.0150)" d="M269 0V622H41V740H633V622H405V0Z"/><path transform="translate(10.1 0) scale(0.0150 -0.0150)" d="M72 0V760H205V454H211Q219 468 236.0 488.5Q253 509 283.0 524.5Q313 540 359 540Q420 540 459.5 512.5Q499 485 518.5 440.0Q538 395 538 343V0H405V325Q405 368 381.0 399.0Q357 430 309 430Q272 430 249.0 411.5Q226 393 215.5 364.0Q205 335 205 303V0Z"/><path transform="translate(19.1 0) scale(0.0150 -0.0150)" d="M147 612Q112 612 89.0 635.0Q66 658 66 690Q66 722 89.0 745.0Q112 768 147 768Q181 768 204.5 745.0Q228 722 228 690Q228 658 204.5 635.0Q181 612 147 612ZM81 0V530H214V0ZM147 -240Q114 -240 93.0 -218.0Q72 -196 72 -166Q72 -135 93.0 -113.0Q114 -91 147 -91Q179 -91 200.0 -113.0Q221 -135 221 -166Q221 -196 200.0 -218.0Q179 -240 147 -240Z"/><path transform="translate(23.5 0) scale(0.0150 -0.0150)" d="M301 -10Q247 -10 212.0 6.0Q177 22 157.5 48.0Q138 74 130.0 105.0Q122 136 122 166V423H31V530H122V662H255V530H374V423H255V169Q255 98 335 98Q354 98 370.5 100.5Q387 103 387 103V-1Q387 -1 361.5 -5.5Q336 -10 301 -10Z"/><path transform="translate(33.5 0) scale(0.0150 -0.0150)" d="M289 -10Q230 -10 186.0 13.5Q142 37 112.5 76.5Q83 116 68.5 165.0Q54 214 54 265Q54 316 68.5 365.0Q83 414 112.5 453.5Q142 493 186.0 516.5Q230 540 289 540Q340 540 373.0 523.5Q406 507 425.0 487.5Q444 468 451 456H457V760H590V0H457V74H451Q444 62 425.0 42.0Q406 22 373.0 6.0Q340 -10 289 -10ZM324 99Q369 99 399.0 123.5Q429 148 444.0 186.0Q459 224 459 265Q459 306 444.0 344.0Q429 382 399.0 406.5Q369 431 324 431Q279 431 248.5 406.5Q218 382 203.0 344.0Q188 306 188 265Q188 224 203.0 186.0Q218 148 248.5 123.5Q279 99 324 99Z"/><path transform="translate(43.4 0) scale(0.0150 -0.0150)" d="M326 -10Q239 -10 178.0 29.0Q117 68 85.5 130.5Q54 193 54 265Q54 337 85.5 399.5Q117 462 178.0 501.0Q239 540 326 540Q414 540 474.5 501.0Q535 462 566.5 399.5Q598 337 598 265Q598 193 566.5 130.5Q535 68 474.5 29.0Q414 -10 326 -10ZM326 101Q371 101 401.5 124.0Q432 147 448.0 184.5Q464 222 464 265Q464 309 448.0 346.0Q432 383 401.5 406.0Q371 429 326 429Q282 429 251.0 406.0Q220 383 204.0 346.0Q188 309 188 265Q188 222 204.0 184.5Q220 147 251.0 124.0Q282 101 326 101Z"/><path transform="translate(53.2 0) scale(0.0150 -0.0150)" d="M62 0V530H195V454H201Q209 468 226.0 488.5Q243 509 273.0 524.5Q303 540 349 540Q410 540 449.5 512.5Q489 485 508.5 440.0Q528 395 528 343V0H395V325Q395 368 371.0 399.0Q347 430 299 430Q262 430 239.0 411.5Q216 393 205.5 364.0Q195 335 195 303V0Z"/><path transform="translate(62.0 0) scale(0.0150 -0.0150)" d="M318 -10Q250 -10 200.5 13.5Q151 37 118.5 76.5Q86 116 70.0 165.0Q54 214 54 265Q54 316 69.5 364.5Q85 413 116.5 453.0Q148 493 197.0 516.5Q246 540 313 540Q385 540 440.0 508.0Q495 476 526.0 414.5Q557 353 557 262V228H188Q191 174 225.0 134.5Q259 95 318 95Q352 95 374.0 106.0Q396 117 408.0 131.5Q420 146 425.0 156.5Q430 167 430 167H553Q553 167 548.0 149.5Q543 132 529.5 105.5Q516 79 490.0 52.5Q464 26 422.0 8.0Q380 -10 318 -10ZM188 315H429Q426 377 392.0 407.0Q358 437 312 437Q261 437 227.0 404.5Q193 372 188 315Z"/><path transform="translate(71.2 0) scale(0.0150 -0.0150)" d="M62 0V530H194V457H199Q213 488 245.0 514.0Q277 540 341 540Q361 540 374.0 537.5Q387 535 387 535V406Q387 406 372.5 408.0Q358 410 337 410Q267 410 231.0 371.0Q195 332 195 245V0Z"/><path transform="translate(80.9 0) scale(0.0150 -0.0150)" d="M409 -216Q320 -205 252.0 -157.5Q184 -110 138.0 -37.0Q92 36 68.5 125.0Q45 214 45 308Q45 403 68.5 491.5Q92 580 138.0 653.0Q184 726 252.0 773.5Q320 821 409 832V712Q356 701 314.0 664.0Q272 627 242.0 571.0Q212 515 196.0 447.0Q180 379 180 308Q180 237 196.0 169.0Q212 101 242.0 45.0Q272 -11 314.0 -48.0Q356 -85 409 -96Z"/><path transform="translate(87.6 0) scale(0.0150 -0.0150)" d="M72 0V760H205V320L392 530H549L329 288L556 0H397L205 244V0Z"/><path transform="translate(96.4 0) scale(0.0150 -0.0150)" d="M328 -212Q257 -212 210.5 -193.5Q164 -175 137.0 -148.5Q110 -122 97.0 -95.0Q84 -68 80.0 -50.0Q76 -32 76 -32H206Q206 -32 210.0 -43.0Q214 -54 226.5 -68.5Q239 -83 263.0 -94.0Q287 -105 327 -105Q397 -105 428.0 -65.0Q459 -25 459 32V91H453Q442 74 421.5 54.0Q401 34 368.5 20.0Q336 6 290 6Q231 6 187.0 29.0Q143 52 113.0 90.0Q83 128 68.5 175.5Q54 223 54 273Q54 323 68.5 370.5Q83 418 113.0 456.5Q143 495 187.0 517.5Q231 540 290 540Q336 540 368.5 526.0Q401 512 421.5 492.5Q442 473 453 456H459V530H592V33Q592 -36 563.0 -91.5Q534 -147 475.5 -179.5Q417 -212 328 -212ZM325 113Q370 113 400.0 136.5Q430 160 445.0 196.5Q460 233 460 273Q460 314 445.0 350.5Q430 387 400.0 410.0Q370 433 325 433Q279 433 248.5 410.0Q218 387 203.0 350.5Q188 314 188 273Q188 233 203.0 196.5Q218 160 248.5 136.5Q279 113 325 113Z"/><path transform="translate(106.2 0) scale(0.0150 -0.0150)" d="M39 832Q129 821 197.0 773.5Q265 726 311.0 653.0Q357 580 380.5 491.0Q404 402 404 308Q404 214 380.5 125.0Q357 36 311.0 -37.0Q265 -110 197.0 -157.5Q129 -205 39 -216V-96Q92 -85 134.5 -48.0Q177 -11 207.0 45.0Q237 101 253.0 169.0Q269 237 269 308Q269 379 253.0 447.0Q237 515 207.0 571.0Q177 627 134.5 664.0Q92 701 39 712Z"/></g><g fill="#D2141E" transform="translate(421.8 208.0)"><path transform="translate(0.0 0) scale(0.0150 -0.0150)" d="M64 -217V858H423V712H239V-71H423V-217Z"/><path transform="translate(7.8 0) scale(0.0150 -0.0150)" d="M287 -10Q219 -10 174.5 8.0Q130 26 104.0 53.0Q78 80 65.0 107.0Q52 134 48.0 152.0Q44 170 44 170H200Q200 170 203.5 161.5Q207 153 216.5 141.5Q226 130 245.0 121.5Q264 113 296 113Q335 113 347.0 128.0Q359 143 359 155Q359 185 308 195L235 208Q187 216 145.0 234.0Q103 252 77.0 284.0Q51 316 51 367Q51 416 76.5 455.0Q102 494 150.5 517.0Q199 540 268 540Q331 540 373.0 523.0Q415 506 440.0 481.0Q465 456 477.0 431.0Q489 406 493.0 389.0Q497 372 497 372H346Q346 372 340.0 384.0Q334 396 316.5 408.0Q299 420 264 420Q229 420 216.0 406.5Q203 393 203 379Q203 361 220.0 352.5Q237 344 263 339L330 326Q409 311 459.5 273.5Q510 236 510 164Q510 90 452.5 40.0Q395 -10 287 -10Z"/><path transform="translate(16.0 0) scale(0.0150 -0.0150)" d="M64 0V760H235V0Z"/><path transform="translate(20.5 0) scale(0.0150 -0.0150)" d="M455 858V-217H96V-71H280V712H96V858Z"/></g><ellipse cx="379.7" cy="253.6" rx="2.7" ry="3.3" fill="none" stroke="#D2141E" stroke-width="1.3" stroke-linecap="round" stroke-dasharray="17.6 1.2" stroke-dashoffset="3.7"/><ellipse cx="379.7" cy="253.2" rx="5.5" ry="6.5" fill="none" stroke="#D2141E" stroke-width="1.3" stroke-linecap="round" stroke-dasharray="35.4 2.3" stroke-dashoffset="4.9"/><ellipse cx="380.8" cy="252.9" rx="8.2" ry="9.8" fill="none" stroke="#D2141E" stroke-width="1.3" stroke-linecap="round" stroke-dasharray="49.0 7.5" stroke-dashoffset="43.3"/><ellipse cx="379.3" cy="252.5" rx="10.9" ry="13.1" fill="none" stroke="#D2141E" stroke-width="1.3" stroke-linecap="round" stroke-dasharray="67.3 8.1" stroke-dashoffset="13.9"/><ellipse cx="379.1" cy="252.2" rx="13.6" ry="16.4" fill="none" stroke="#D2141E" stroke-width="1.3" stroke-linecap="round" stroke-dasharray="88.0 6.2" stroke-dashoffset="13.6"/><ellipse cx="380.9" cy="251.8" rx="16.4" ry="19.6" fill="none" stroke="#D2141E" stroke-width="1.3" stroke-linecap="round" stroke-dasharray="97.7 15.4" stroke-dashoffset="87.4"/><ellipse cx="379.4" cy="251.4" rx="19.1" ry="22.9" fill="none" stroke="#D2141E" stroke-width="1.3" stroke-linecap="round" stroke-dasharray="122.1 9.8" stroke-dashoffset="88.0"/><ellipse cx="381.1" cy="251.1" rx="21.8" ry="26.2" fill="none" stroke="#D2141E" stroke-width="1.3" stroke-linecap="round" stroke-dasharray="131.7 19.1" stroke-dashoffset="78.8"/><ellipse cx="380.3" cy="250.7" rx="24.5" ry="29.5" fill="none" stroke="#D2141E" stroke-width="1.3" stroke-linecap="round" stroke-dasharray="158.8 10.9" stroke-dashoffset="124.4"/><ellipse cx="379.0" cy="250.4" rx="27.3" ry="32.7" fill="none" stroke="#D2141E" stroke-width="1.3" stroke-linecap="round" stroke-dasharray="168.8 19.7" stroke-dashoffset="105.5"/><ellipse cx="381.3" cy="250.0" rx="30.0" ry="36.0" fill="none" stroke="#D2141E" stroke-width="1.3" stroke-linecap="round" stroke-dasharray="194.0 13.3" stroke-dashoffset="81.8"/><g fill="#231716" transform="translate(305.0 312.0)"><path transform="translate(0.0 0) scale(0.0120 -0.0120)" d="M72 0V740H196L536 238V740H671V0H547L207 493V0Z"/><path transform="translate(8.9 0) scale(0.0120 -0.0120)" d="M328 -212Q257 -212 210.5 -193.5Q164 -175 137.0 -148.5Q110 -122 97.0 -95.0Q84 -68 80.0 -50.0Q76 -32 76 -32H206Q206 -32 210.0 -43.0Q214 -54 226.5 -68.5Q239 -83 263.0 -94.0Q287 -105 327 -105Q397 -105 428.0 -65.0Q459 -25 459 32V91H453Q442 74 421.5 54.0Q401 34 368.5 20.0Q336 6 290 6Q231 6 187.0 29.0Q143 52 113.0 90.0Q83 128 68.5 175.5Q54 223 54 273Q54 323 68.5 370.5Q83 418 113.0 456.5Q143 495 187.0 517.5Q231 540 290 540Q336 540 368.5 526.0Q401 512 421.5 492.5Q442 473 453 456H459V530H592V33Q592 -36 563.0 -91.5Q534 -147 475.5 -179.5Q417 -212 328 -212ZM325 113Q370 113 400.0 136.5Q430 160 445.0 196.5Q460 233 460 273Q460 314 445.0 350.5Q430 387 400.0 410.0Q370 433 325 433Q279 433 248.5 410.0Q218 387 203.0 350.5Q188 314 188 273Q188 233 203.0 196.5Q218 160 248.5 136.5Q279 113 325 113Z"/><path transform="translate(16.8 0) scale(0.0120 -0.0120)" d="M230 -10Q147 -10 104.5 41.0Q62 92 62 172V530H194V194Q194 151 217.0 125.5Q240 100 282 100Q319 100 342.0 119.0Q365 138 375.5 168.0Q386 198 386 230V530H483Q522 530 522 571V638H631V567Q631 516 604.5 487.0Q578 458 526 458H519V0H386V76H380Q370 58 351.5 38.0Q333 18 303.5 4.0Q274 -10 230 -10Z"/><path transform="translate(23.8 0) scale(0.0120 -0.0120)" d="M280 606 173 786H300L382 607ZM328 -10Q240 -10 179.5 29.0Q119 68 87.5 130.5Q56 193 56 265Q56 337 87.5 399.5Q119 462 179.5 501.0Q240 540 328 540H458Q497 540 497 581V648H607V577Q607 530 584.5 502.0Q562 474 517 469Q558 430 579.0 377.0Q600 324 600 265Q600 193 568.5 130.5Q537 68 476.5 29.0Q416 -10 328 -10ZM328 101Q372 101 403.0 124.0Q434 147 450.0 184.5Q466 222 466 265Q466 309 450.0 346.0Q434 383 403.0 406.0Q372 429 328 429Q284 429 253.0 406.0Q222 383 206.0 346.0Q190 309 190 265Q190 222 206.0 184.5Q222 147 253.0 124.0Q284 101 328 101Z"/><path transform="translate(31.7 0) scale(0.0120 -0.0120)" d="M142 612Q107 612 84.5 635.0Q62 658 62 690Q62 722 84.5 745.0Q107 768 142 768Q177 768 200.0 745.0Q223 722 223 690Q223 658 200.0 635.0Q177 612 142 612ZM76 0V530H209V0Z"/><path transform="translate(37.9 0) scale(0.0120 -0.0120)" d="M72 0 73 760H205V0Z"/><path transform="translate(41.2 0) scale(0.0120 -0.0120)" d="M283 606 175 786H302L384 607ZM292 540Q343 540 376.0 523.5Q409 507 428.0 487.5Q447 468 454 456H460V530H593V0H460V74H454Q447 62 428.0 42.0Q409 22 376.0 6.0Q343 -10 292 -10Q233 -10 189.0 13.5Q145 37 115.5 76.5Q86 116 71.5 165.0Q57 214 57 265Q57 316 71.5 365.0Q86 414 115.5 453.5Q145 493 189.0 516.5Q233 540 292 540ZM327 431Q282 431 251.5 406.5Q221 382 206.0 344.0Q191 306 191 265Q191 224 206.0 186.0Q221 148 251.5 123.5Q282 99 327 99Q372 99 402.0 123.5Q432 148 447.0 186.0Q462 224 462 265Q462 306 447.0 344.0Q432 382 402.0 406.5Q372 431 327 431Z"/><path transform="translate(49.1 0) scale(0.0120 -0.0120)" d="M62 0V530H195V456H200Q210 474 228.0 493.5Q246 513 274.5 526.5Q303 540 345 540Q404 540 442.0 512.0Q480 484 498 440H500Q520 478 559.5 509.0Q599 540 665 540Q721 540 758.5 514.5Q796 489 814.5 446.0Q833 403 833 353V0H700V325Q700 371 677.5 400.5Q655 430 611 430Q576 430 554.5 411.5Q533 393 523.5 365.0Q514 337 514 308V0H381V325Q381 371 359.0 400.5Q337 430 292 430Q257 430 235.5 411.5Q214 393 204.5 364.5Q195 336 195 308V0Z"/><path transform="translate(62.6 0) scale(0.0120 -0.0120)" d="M373 -10Q322 -10 289.0 6.5Q256 23 237.5 43.0Q219 63 212 74H205V0H72V760H205V456H212Q219 468 237.5 488.0Q256 508 289.0 524.0Q322 540 373 540Q433 540 477.0 516.5Q521 493 550.0 453.5Q579 414 593.5 365.0Q608 316 608 265Q608 214 593.5 165.0Q579 116 550.0 76.5Q521 37 477.0 13.5Q433 -10 373 -10ZM338 99Q384 99 414.0 123.5Q444 148 459.0 186.0Q474 224 474 265Q474 306 459.0 344.0Q444 382 414.0 406.5Q384 431 338 431Q293 431 263.0 406.5Q233 382 218.0 344.0Q203 306 203 265Q203 224 218.0 186.0Q233 148 263.0 123.5Q293 99 338 99Z"/><path transform="translate(70.5 0) scale(0.0120 -0.0120)" d="M381 606 280 607 362 786H489ZM292 540Q343 540 376.0 523.5Q409 507 428.0 487.5Q447 468 454 456H460V530H593V0H460V74H454Q447 62 428.0 42.0Q409 22 376.0 6.0Q343 -10 292 -10Q233 -10 189.0 13.5Q145 37 115.5 76.5Q86 116 71.5 165.0Q57 214 57 265Q57 316 71.5 365.0Q86 414 115.5 453.5Q145 493 189.0 516.5Q233 540 292 540ZM327 431Q282 431 251.5 406.5Q221 382 206.0 344.0Q191 306 191 265Q191 224 206.0 186.0Q221 148 251.5 123.5Q282 99 327 99Q372 99 402.0 123.5Q432 148 447.0 186.0Q462 224 462 265Q462 306 447.0 344.0Q432 382 402.0 406.5Q372 431 327 431Z"/><path transform="translate(78.5 0) scale(0.0120 -0.0120)" d="M62 0V530H195V454H201Q209 468 226.0 488.5Q243 509 273.0 524.5Q303 540 349 540Q410 540 449.5 512.5Q489 485 508.5 440.0Q528 395 528 343V0H395V325Q395 368 371.0 399.0Q347 430 299 430Q262 430 239.0 411.5Q216 393 205.5 364.0Q195 335 195 303V0Z"/><path transform="translate(85.5 0) scale(0.0120 -0.0120)" d="M72 0V760H205V454H211Q219 468 236.0 488.5Q253 509 283.0 524.5Q313 540 359 540Q420 540 459.5 512.5Q499 485 518.5 440.0Q538 395 538 343V0H405V325Q405 368 381.0 399.0Q357 430 309 430Q272 430 249.0 411.5Q226 393 215.5 364.0Q205 335 205 303V0Z"/><path transform="translate(95.5 0) scale(0.0120 -0.0120)" d="M41 0 206 264 40 530H180L295 344L412 530H551L381 264L551 0H411L295 186L180 0Z"/><path transform="translate(102.6 0) scale(0.0120 -0.0120)" d="M381 606 280 607 362 786H489ZM292 540Q343 540 376.0 523.5Q409 507 428.0 487.5Q447 468 454 456H460V530H593V0H460V74H454Q447 62 428.0 42.0Q409 22 376.0 6.0Q343 -10 292 -10Q233 -10 189.0 13.5Q145 37 115.5 76.5Q86 116 71.5 165.0Q57 214 57 265Q57 316 71.5 365.0Q86 414 115.5 453.5Q145 493 189.0 516.5Q233 540 292 540ZM327 431Q282 431 251.5 406.5Q221 382 206.0 344.0Q191 306 191 265Q191 224 206.0 186.0Q221 148 251.5 123.5Q282 99 327 99Q372 99 402.0 123.5Q432 148 447.0 186.0Q462 224 462 265Q462 306 447.0 344.0Q432 382 402.0 406.5Q372 431 327 431Z"/><path transform="translate(110.5 0) scale(0.0120 -0.0120)" d="M325 -10Q257 -10 206.0 13.5Q155 37 121.0 76.5Q87 116 70.5 165.0Q54 214 54 265Q54 316 70.5 365.0Q87 414 120.5 453.5Q154 493 205.0 516.5Q256 540 325 540Q393 540 438.0 520.0Q483 500 509.5 470.0Q536 440 549.0 410.5Q562 381 566.0 361.0Q570 341 570 341H445Q445 341 441.0 354.5Q437 368 425.0 386.0Q413 404 389.5 418.0Q366 432 327 432Q281 432 249.5 408.5Q218 385 202.0 347.0Q186 309 186 265Q186 221 202.0 183.0Q218 145 249.5 121.5Q281 98 327 98Q366 98 389.5 112.0Q413 126 425.0 144.0Q437 162 441.0 175.5Q445 189 445 189H570Q570 189 566.0 169.0Q562 149 549.0 119.5Q536 90 509.5 60.0Q483 30 438.0 10.0Q393 -10 325 -10Z"/><path transform="translate(120.8 0) scale(0.0120 -0.0120)" d="M62 0V530H195V454H201Q209 468 226.0 488.5Q243 509 273.0 524.5Q303 540 349 540Q410 540 449.5 512.5Q489 485 508.5 440.0Q528 395 528 343V0H395V325Q395 368 371.0 399.0Q347 430 299 430Q262 430 239.0 411.5Q216 393 205.5 364.0Q195 335 195 303V0Z"/><path transform="translate(127.8 0) scale(0.0120 -0.0120)" d="M72 0V760H205V454H211Q219 468 236.0 488.5Q253 509 283.0 524.5Q313 540 359 540Q420 540 459.5 512.5Q499 485 518.5 440.0Q538 395 538 343V0H405V325Q405 368 381.0 399.0Q357 430 309 430Q272 430 249.0 411.5Q226 393 215.5 364.0Q205 335 205 303V0Z"/><path transform="translate(135.0 0) scale(0.0120 -0.0120)" d="M150 599 277 775H384L511 599H403L331 704L258 599ZM292 540Q343 540 376.0 523.5Q409 507 428.0 487.5Q447 468 454 456H460V530H593V0H460V74H454Q447 62 428.0 42.0Q409 22 376.0 6.0Q343 -10 292 -10Q233 -10 189.0 13.5Q145 37 115.5 76.5Q86 116 71.5 165.0Q57 214 57 265Q57 316 71.5 365.0Q86 414 115.5 453.5Q145 493 189.0 516.5Q233 540 292 540ZM327 431Q282 431 251.5 406.5Q221 382 206.0 344.0Q191 306 191 265Q191 224 206.0 186.0Q221 148 251.5 123.5Q282 99 327 99Q372 99 402.0 123.5Q432 148 447.0 186.0Q462 224 462 265Q462 306 447.0 344.0Q432 382 402.0 406.5Q372 431 327 431ZM330 -240Q297 -240 276.5 -218.0Q256 -196 256 -166Q256 -134 276.5 -112.5Q297 -91 330 -91Q362 -91 383.5 -112.5Q405 -134 405 -166Q405 -196 383.5 -218.0Q362 -240 330 -240Z"/><path transform="translate(143.0 0) scale(0.0120 -0.0120)" d="M62 0V530H195V454H201Q209 468 226.0 488.5Q243 509 273.0 524.5Q303 540 349 540Q410 540 449.5 512.5Q489 485 508.5 440.0Q528 395 528 343V0H395V325Q395 368 371.0 399.0Q347 430 299 430Q262 430 239.0 411.5Q216 393 205.5 364.0Q195 335 195 303V0Z"/></g></svg>
