<svg xmlns="http://www.w3.org/2000/svg" viewBox="-3 -100 350 142" role="img" aria-label="Ẩm Thực An Tâm"><path fill="#FFF4E8" d="M255.8 0V-53.3H273.2L273.6 -47.9Q274.2 -48.7 274.9 -49.3Q276.8 -51.1 279.1 -52.2Q281.4 -53.4 283.8 -53.9Q286.2 -54.4 288.4 -54.4Q292.1 -54.4 295.2 -53.4Q298.4 -52.3 300.8 -49.8Q302.4 -48.2 303.7 -45.8Q304.9 -47.5 306.3 -48.8Q308.4 -50.6 310.9 -51.9Q313.4 -53.2 316.1 -53.8Q318.7 -54.4 321.1 -54.4Q327.6 -54.4 332 -51.9Q336.4 -49.4 338.6 -44.6Q340.8 -39.7 340.8 -32.7V0H322.2V-31.2Q322.2 -33.8 321.4 -35.5Q320.6 -37.3 319.1 -38.2Q317.6 -39.1 315.4 -39.1Q313.7 -39.1 312.2 -38.5Q310.8 -38 309.8 -37Q308.8 -35.9 308.2 -34.7Q307.6 -33.4 307.6 -31.7V0H289V-31.3Q289 -33.8 288.2 -35.5Q287.4 -37.2 285.9 -38.1Q284.4 -39.1 282.2 -39.1Q280.5 -39.1 279.1 -38.5Q277.6 -38 276.6 -37Q275.6 -36 275 -34.7Q274.4 -33.4 274.4 -31.8V0ZM213 0.9Q206.4 0.9 201.1 -2.6Q195.9 -6.2 192.8 -12.5Q189.8 -18.7 189.8 -26.7Q189.8 -34.9 192.8 -41.1Q195.8 -47.3 201.1 -50.9Q206.4 -54.4 213.3 -54.4Q217 -54.4 220.1 -53.4Q223.2 -52.4 225.5 -50.5Q227.2 -49.1 228.5 -47.5V-53.3H246.8V0H228.1V-5.6Q226.8 -4.2 225.3 -3.1Q222.8 -1.2 219.8 -0.2Q216.7 0.9 213 0.9ZM26.3 0.9Q19.7 0.9 14.5 -2.6Q9.2 -6.2 6.1 -12.5Q3.1 -18.7 3.1 -26.7Q3.1 -34.9 6.1 -41.1Q9.1 -47.3 14.4 -50.9Q19.7 -54.4 26.6 -54.4Q30.3 -54.4 33.4 -53.4Q36.5 -52.4 38.8 -50.5Q40.5 -49.1 41.8 -47.5V-53.3H60.1V0H41.4V-5.6Q40.1 -4.2 38.6 -3.1Q36.1 -1.2 33 -0.2Q30 0.9 26.3 0.9ZM69.1 0V-53.3H86.5L86.9 -47.5Q87.2 -47.8 87.4 -48Q90.3 -51 94.3 -52.7Q98.3 -54.4 102.7 -54.4Q108.7 -54.4 112.8 -52Q117 -49.5 119.2 -44.6Q121.3 -39.8 121.3 -32.8V0H102.7V-31.3Q102.7 -33.9 101.9 -35.7Q101.1 -37.4 99.5 -38.3Q97.9 -39.2 95.7 -39.1Q94 -39.1 92.5 -38.6Q91.1 -38.1 90 -37Q88.9 -36 88.4 -34.7Q87.8 -33.4 87.8 -31.8V0ZM161.7 0V-37.5H152.9V-53.3H161.7V-66.8H180.3V-53.3H189.6V-37.5H180.3V0ZM218.3 -14.4Q221.5 -14.4 223.8 -15.8Q226.1 -17.3 227.4 -20.1Q228.6 -22.9 228.6 -26.7Q228.6 -30.6 227.4 -33.4Q226.1 -36.2 223.8 -37.6Q221.5 -39.1 218.3 -39.1Q215.1 -39.1 212.9 -37.6Q210.6 -36.2 209.4 -33.4Q208.2 -30.6 208.2 -26.7Q208.2 -22.9 209.4 -20.1Q210.6 -17.3 212.9 -15.8Q215.1 -14.4 218.3 -14.4ZM31.6 -14.4Q34.8 -14.4 37.1 -15.8Q39.4 -17.3 40.7 -20.1Q41.9 -22.9 41.9 -26.7Q41.9 -30.6 40.7 -33.4Q39.4 -36.2 37.1 -37.6Q34.8 -39.1 31.6 -39.1Q28.4 -39.1 26.1 -37.6Q23.9 -36.2 22.7 -33.4Q21.5 -30.6 21.5 -26.7Q21.5 -22.9 22.7 -20.1Q23.9 -17.3 26.1 -15.8Q28.4 -14.4 31.6 -14.4Z"/><g transform="rotate(-12 214.3 -60.4)"><path d="M192.3,-60.4 C192.3,-80.7 236.3,-80.7 236.3,-60.4 Z" fill="#FFD37A"/><ellipse cx="203.7" cy="-66.6" rx="2.9" ry="1.9" fill="#B5121B"/><ellipse cx="213.9" cy="-71.8" rx="2.4" ry="1.6" fill="#B5121B"/><ellipse cx="223.5" cy="-66.1" rx="3.1" ry="2.1" fill="#B5121B"/><ellipse cx="217.8" cy="-63.5" rx="1.7" ry="1.1" fill="#B5121B"/></g><path transform="translate(5.1 -68.4)" fill="#FFF4E8" d="M15.2 0V-11.9H18.2L21.3 -6.7L24.6 -11.9H27.4V0H24.2V-3.2Q24.2 -4.7 24.3 -5.9Q24.3 -6.2 24.3 -6.4L21.8 -2.7H20.7L18.4 -6.4Q18.4 -6.2 18.4 -6Q18.5 -4.8 18.5 -3.2V0ZM61.1 0V-4.5H57.2V0H53.9V-11.9H57.2V-7.4H61.1V-11.9H64.4V0ZM74.5 0.1Q73 0.1 71.8 -0.5Q70.6 -1.1 69.9 -2.2Q69.3 -3.2 69.3 -4.6V-11.9H72.7V-4.7Q72.7 -4.2 72.9 -3.7Q73.1 -3.3 73.6 -3.1Q74 -2.8 74.5 -2.8Q75 -2.8 75.5 -3.1Q75.9 -3.3 76.1 -3.7Q76.4 -4.2 76.4 -4.7V-11.9H77.6Q78.4 -11.9 78.8 -12.5Q79.1 -13 79.1 -14.1H81.5Q81.5 -13.2 81.3 -12.4Q81 -11.6 80.4 -11.1Q80.1 -10.8 79.7 -10.7V-4.6Q79.7 -3.2 79 -2.2Q78.4 -1.1 77.2 -0.5Q76 0.1 74.5 0.1ZM-0.2 0 4.5 -11.9H7.3L12 0H8.6L7.9 -2H3.8L3.1 0ZM90.2 0.2Q88.8 0.2 87.7 -0.3Q86.5 -0.7 85.6 -1.6Q84.8 -2.4 84.3 -3.5Q83.8 -4.7 83.8 -6Q83.8 -7.4 84.3 -8.5Q84.8 -9.6 85.7 -10.5Q86.5 -11.3 87.7 -11.7Q88.9 -12.2 90.3 -12.2Q91.2 -12.2 92 -12Q92.8 -11.8 93.5 -11.4Q94.2 -11 94.8 -10.4L92.8 -8Q92.5 -8.3 92.1 -8.6Q91.7 -8.8 91.3 -9Q90.8 -9.1 90.3 -9.1Q89.7 -9.1 89.1 -8.9Q88.6 -8.7 88.2 -8.3Q87.8 -7.9 87.5 -7.3Q87.3 -6.7 87.3 -6Q87.3 -5.3 87.5 -4.7Q87.8 -4.1 88.2 -3.7Q88.6 -3.3 89.2 -3.1Q89.8 -2.9 90.6 -2.9Q91.1 -2.9 91.6 -3Q92 -3.2 92.4 -3.5Q92.8 -3.7 93.1 -4L94.7 -1.5Q94.3 -1 93.6 -0.6Q92.9 -0.3 92 -0Q91.1 0.2 90.2 0.2ZM42.8 0V-9H39.2V-11.9H49.9V-9H46.2V0ZM3.5 -12.7 2.6 -13.8 5 -15.6H6.7L9.1 -13.8L8.2 -12.7L5.9 -13.7ZM8.6 -15Q8.4 -15.1 8.3 -15.3Q8.2 -15.5 8.2 -15.7Q8.2 -15.9 8.3 -16Q8.4 -16.2 8.7 -16.4Q8.8 -16.5 9 -16.6Q9.1 -16.7 9.1 -16.8Q9.1 -17 9 -17.1Q8.8 -17.2 8.5 -17.2Q8.2 -17.2 7.8 -17.1Q7.4 -17 7 -16.8L6.6 -18.5Q7 -18.6 7.5 -18.8Q8.1 -18.9 8.8 -18.9Q9.8 -18.9 10.5 -18.5Q11.1 -18.1 11.1 -17.3Q11.1 -16.7 10.9 -16.4Q10.6 -16.1 10.3 -15.9Q10 -15.8 9.8 -15.7Q9.6 -15.5 9.6 -15.4V-15.3Q9.6 -15.3 9.6 -15.2ZM74.5 3.9Q73.6 3.9 73.1 3.5Q72.6 3.1 72.6 2.3Q72.6 1.6 73.1 1.2Q73.6 0.7 74.5 0.7Q75.4 0.7 75.9 1.2Q76.4 1.6 76.4 2.3Q76.4 3 75.9 3.5Q75.3 3.9 74.5 3.9ZM7 -4.4 6.6 -5.5Q6.4 -6 6.3 -6.4Q6.1 -6.8 6 -7.1Q5.9 -7.4 5.9 -7.7Q5.8 -7.4 5.7 -7.1Q5.6 -6.8 5.4 -6.4Q5.3 -6 5.1 -5.5L4.7 -4.4Z"/><path transform="translate(5.1 34) scale(1.3687)" fill="#FFF4E8" d="M58 0.1Q57.1 0.1 56.3 -0.2Q55.5 -0.5 54.9 -1.1Q54.4 -1.6 54 -2.4Q53.7 -3.2 53.7 -4.1Q53.7 -5 54 -5.8Q54.4 -6.5 54.9 -7.1Q55.5 -7.6 56.3 -7.9Q57.1 -8.3 58 -8.3Q58.9 -8.3 59.7 -7.9Q60.5 -7.6 61.1 -7.1Q61.7 -6.5 62 -5.8Q62.3 -5 62.3 -4.1Q62.3 -3.2 62 -2.4Q61.7 -1.6 61.1 -1.1Q60.5 -0.5 59.7 -0.2Q58.9 0.1 58 0.1ZM159.4 0.1Q158.5 0.1 157.7 -0.2Q156.9 -0.5 156.4 -1.1Q155.8 -1.6 155.5 -2.4Q155.1 -3.2 155.1 -4.1Q155.1 -5 155.5 -5.8Q155.8 -6.5 156.4 -7.1Q156.9 -7.6 157.7 -7.9Q158.5 -8.3 159.4 -8.3Q160.4 -8.3 161.1 -7.9Q161.9 -7.6 162.5 -7.1Q163.1 -6.5 163.4 -5.8Q163.7 -5 163.7 -4.1Q163.7 -3.2 163.4 -2.4Q163.1 -1.6 162.5 -1.1Q161.9 -0.5 161.1 -0.2Q160.4 0.1 159.4 0.1ZM145.5 0V-8.1H148.9Q149.9 -8.1 150.6 -7.8Q151.4 -7.5 151.9 -6.9Q152.5 -6.4 152.8 -5.6Q153.1 -4.9 153.1 -4Q153.1 -3.2 152.8 -2.4Q152.5 -1.7 151.9 -1.1Q151.4 -0.6 150.6 -0.3Q149.9 0 148.9 0ZM1 0V-8.1H4.6Q5.5 -8.1 6 -7.8Q6.6 -7.6 6.9 -7.1Q7.3 -6.7 7.3 -6.1Q7.3 -5.4 6.9 -4.9Q6.7 -4.6 6.3 -4.4Q6.6 -4.3 6.8 -4.1Q7.2 -3.8 7.5 -3.4Q7.7 -3 7.7 -2.5Q7.7 -1.8 7.5 -1.4Q7.2 -0.9 6.8 -0.6Q6.4 -0.3 5.9 -0.1Q5.3 0 4.7 0ZM218.2 0V-8.1H221.8Q222.7 -8.1 223.3 -7.8Q223.9 -7.6 224.2 -7.1Q224.5 -6.7 224.5 -6.1Q224.5 -5.4 224.2 -4.9Q223.9 -4.6 223.5 -4.4Q223.8 -4.3 224.1 -4.1Q224.5 -3.8 224.7 -3.4Q224.9 -3 224.9 -2.5Q224.9 -1.8 224.7 -1.4Q224.5 -0.9 224.1 -0.6Q223.7 -0.3 223.1 -0.1Q222.6 0 222 0ZM236.6 0V-8.1H240.3Q241.1 -8.1 241.7 -7.8Q242.3 -7.6 242.6 -7.1Q242.9 -6.7 242.9 -6.1Q242.9 -5.4 242.6 -4.9Q242.3 -4.6 241.9 -4.4Q242.2 -4.3 242.5 -4.1Q242.9 -3.8 243.1 -3.4Q243.3 -3 243.3 -2.5Q243.3 -1.8 243.1 -1.4Q242.9 -0.9 242.5 -0.6Q242.1 -0.3 241.5 -0.1Q241 0 240.4 0ZM166.3 0V-8.1H168.3L171.7 -3.5Q171.7 -3.5 171.6 -3.6Q171.6 -3.9 171.6 -4.2Q171.5 -4.5 171.5 -4.9Q171.5 -5.2 171.5 -5.5V-8.1H173.7V0H171.6L168.4 -4.5Q168.4 -4.3 168.4 -4.1Q168.4 -3.8 168.4 -3.6Q168.5 -3.3 168.5 -3Q168.5 -2.8 168.5 -2.4V0ZM19.4 0V-8.1H21.4L24.8 -3.5Q24.7 -3.5 24.7 -3.6Q24.7 -3.9 24.7 -4.2Q24.6 -4.5 24.6 -4.9Q24.6 -5.2 24.6 -5.5V-8.1H26.8V0H24.7L21.5 -4.5Q21.5 -4.3 21.5 -4.1Q21.5 -3.8 21.5 -3.6Q21.6 -3.3 21.6 -3Q21.6 -2.8 21.6 -2.4V0ZM185.5 0V-8.1H189.2Q190 -8.1 190.7 -7.7Q191.3 -7.4 191.7 -6.8Q192 -6.2 192 -5.5Q192 -4.7 191.7 -4.1Q191.3 -3.4 190.7 -3.1Q190.6 -3.1 190.6 -3.1L192.4 0H189.8L188.3 -2.7H187.6V0ZM64.8 0V-8.1H68.6Q69.4 -8.1 70 -7.7Q70.7 -7.4 71 -6.8Q71.4 -6.2 71.4 -5.5Q71.4 -4.7 71 -4.1Q70.7 -3.4 70 -3.1Q70 -3.1 70 -3.1L71.7 0H69.2L67.6 -2.7H67V0ZM135.9 0 135.4 -0.5Q134.9 -0.2 134.4 -0.1Q133.8 0.1 133.1 0.1Q132.1 0.1 131.4 -0.2Q130.7 -0.6 130.2 -1.2Q129.8 -1.8 129.8 -2.5Q129.8 -3.3 130.3 -4Q130.7 -4.6 131.4 -4.9Q131.2 -5.2 131.2 -5.5Q131.1 -5.8 131.1 -6Q131.1 -6.7 131.4 -7.2Q131.8 -7.7 132.4 -8Q133 -8.3 133.8 -8.3Q134.4 -8.3 134.9 -8.1Q135.4 -7.9 135.8 -7.5Q136.2 -7.2 136.4 -6.7L134.7 -5.7Q134.5 -6.2 134.3 -6.3Q134.1 -6.5 133.8 -6.5Q133.7 -6.5 133.5 -6.4Q133.4 -6.3 133.3 -6.2Q133.2 -6.1 133.2 -5.9Q133.2 -5.7 133.4 -5.3Q133.6 -5 133.9 -4.7Q134.2 -4.3 134.5 -4Q134.8 -3.7 135.1 -3.4L135.3 -3.2Q135.4 -3.6 135.5 -4.1H137.5Q137.4 -3.3 137.1 -2.7Q136.9 -2.3 136.7 -1.9L138.5 0ZM34.7 0V-3H32.1V0H29.9V-8.1H32.1V-5H34.7V-8.1H37V0ZM199.8 0V-8.1H202.1V-5.5L204.6 -8.1H207.2L203.8 -4.7L207.5 0H204.9L202.4 -3.3L202.1 -3V0ZM176.8 0V-8.1H182.6V-6.2H179V-5H182.2V-3.2H179V-1.9H182.8V0ZM209.5 0V-8.1H215.3V-6.2H211.7V-5H214.9V-3.2H211.7V-1.9H215.5V0ZM119.4 0.1Q118.5 0.1 117.9 -0.1Q117.2 -0.3 116.7 -0.6Q116.2 -1 115.8 -1.5L117.1 -3Q117.7 -2.3 118.3 -2Q118.9 -1.8 119.5 -1.8Q119.7 -1.8 119.9 -1.8Q120.1 -1.9 120.2 -2Q120.4 -2.1 120.4 -2.3Q120.4 -2.5 120.3 -2.6Q120.2 -2.7 120 -2.8Q119.9 -2.9 119.7 -2.9Q119.5 -3 119.3 -3Q119.1 -3.1 118.9 -3.1Q118.2 -3.3 117.7 -3.5Q117.2 -3.7 116.9 -4.1Q116.5 -4.4 116.4 -4.8Q116.2 -5.2 116.2 -5.7Q116.2 -6.3 116.4 -6.8Q116.7 -7.2 117.2 -7.6Q117.6 -7.9 118.2 -8.1Q118.7 -8.3 119.3 -8.3Q120.2 -8.3 120.8 -8.1Q121.4 -7.9 121.8 -7.6Q122.2 -7.3 122.5 -6.9L121.2 -5.6Q120.9 -5.8 120.6 -6Q120.3 -6.2 120 -6.3Q119.7 -6.4 119.4 -6.4Q119.2 -6.4 118.9 -6.3Q118.7 -6.2 118.6 -6.1Q118.5 -6 118.5 -5.8Q118.5 -5.7 118.6 -5.6Q118.7 -5.4 118.9 -5.4Q119.1 -5.3 119.4 -5.2Q119.6 -5.2 119.8 -5.1Q120.4 -5 120.9 -4.8Q121.5 -4.6 121.8 -4.3Q122.2 -4 122.4 -3.6Q122.6 -3.1 122.6 -2.5Q122.6 -1.7 122.2 -1.1Q121.8 -0.5 121.1 -0.2Q120.3 0.1 119.4 0.1ZM106.4 0 109.7 -8.1H111.5L114.7 0H112.4L111.9 -1.3H109.2L108.7 0ZM9.2 0 12.4 -8.1H14.2L17.4 0H15.1L14.6 -1.3H11.9L11.4 0ZM226.4 0 229.6 -8.1H231.5L234.6 0H232.4L231.9 -1.3H229.1L228.6 0ZM83.1 0V-1.9H84.5V-6.2H83.1V-8.1H88.2V-6.2H86.8V-1.9H88.2V0ZM47 0V-6.1H44.5V-8.1H51.8V-6.1H49.2V0ZM75.9 0V-6.1H73.5V-8.1H80.7V-6.1H78.2V0ZM91.1 0V-8.1H93.4V-2H96.9V0ZM99.3 0V-8.1H101.6V-2H105.1V0ZM159.4 -2Q159.8 -2 160.2 -2.2Q160.6 -2.3 160.8 -2.6Q161.1 -2.9 161.2 -3.2Q161.4 -3.6 161.4 -4.1Q161.4 -4.5 161.2 -4.9Q161.1 -5.3 160.8 -5.6Q160.6 -5.8 160.2 -6Q159.8 -6.1 159.4 -6.1Q159 -6.1 158.6 -6Q158.3 -5.8 158 -5.6Q157.8 -5.3 157.6 -4.9Q157.5 -4.5 157.5 -4.1Q157.5 -3.6 157.6 -3.2Q157.8 -2.9 158 -2.6Q158.3 -2.3 158.6 -2.2Q159 -2 159.4 -2ZM58 -2Q58.4 -2 58.8 -2.2Q59.1 -2.3 59.4 -2.6Q59.7 -2.9 59.8 -3.2Q59.9 -3.6 59.9 -4.1Q59.9 -4.5 59.8 -4.9Q59.7 -5.3 59.4 -5.6Q59.1 -5.8 58.8 -6Q58.4 -6.1 58 -6.1Q57.6 -6.1 57.2 -6Q56.9 -5.8 56.6 -5.6Q56.3 -5.3 56.2 -4.9Q56.1 -4.5 56.1 -4.1Q56.1 -3.6 56.2 -3.2Q56.3 -2.9 56.6 -2.6Q56.9 -2.3 57.2 -2.2Q57.6 -2 58 -2ZM147.8 -2H148.9Q149.3 -2 149.7 -2.1Q150 -2.3 150.2 -2.5Q150.5 -2.8 150.6 -3.2Q150.8 -3.6 150.8 -4Q150.8 -4.5 150.6 -4.9Q150.5 -5.2 150.2 -5.5Q150 -5.8 149.6 -5.9Q149.3 -6.1 148.9 -6.1H147.8ZM12.2 -8.6 11.7 -9.6 14.2 -11 14.9 -9.5ZM187.6 -4.4H188.9Q189.2 -4.4 189.4 -4.5Q189.6 -4.6 189.7 -4.8Q189.8 -5 189.8 -5.3Q189.8 -5.6 189.7 -5.8Q189.6 -6 189.4 -6.1Q189.1 -6.2 188.8 -6.2H187.6ZM67 -4.4H68.3Q68.6 -4.4 68.8 -4.5Q69 -4.6 69.1 -4.8Q69.2 -5 69.2 -5.3Q69.2 -5.6 69.1 -5.8Q68.9 -6 68.7 -6.1Q68.5 -6.2 68.2 -6.2H67ZM3.1 -1.8H4.6Q4.9 -1.8 5.1 -1.9Q5.3 -2 5.4 -2.2Q5.5 -2.3 5.5 -2.6Q5.5 -2.8 5.4 -3Q5.3 -3.1 5.1 -3.2Q4.9 -3.3 4.6 -3.3H3.1ZM238.7 -1.8H240.3Q240.6 -1.8 240.7 -1.9Q240.9 -2 241 -2.2Q241.1 -2.3 241.1 -2.6Q241.1 -2.8 241 -3Q240.9 -3.1 240.7 -3.2Q240.5 -3.3 240.2 -3.3H238.7ZM220.3 -1.8H221.9Q222.2 -1.8 222.3 -1.9Q222.5 -2 222.6 -2.2Q222.7 -2.3 222.7 -2.6Q222.7 -2.8 222.6 -3Q222.5 -3.1 222.3 -3.2Q222.1 -3.3 221.8 -3.3H220.3ZM134.1 -1.7 132.7 -3.2Q132.5 -3.4 132.4 -3.6Q132.2 -3.5 132.1 -3.4Q131.8 -3.1 131.8 -2.7Q131.8 -2.3 132 -2.1Q132.2 -1.8 132.5 -1.7Q132.8 -1.6 133.3 -1.6Q133.7 -1.6 134.1 -1.7Q134.1 -1.7 134.1 -1.7ZM3.1 -4.9H4.2Q4.5 -4.9 4.7 -4.9Q4.9 -5 5 -5.2Q5.1 -5.3 5.1 -5.5Q5.1 -5.9 4.9 -6Q4.6 -6.2 4.2 -6.2H3.1ZM220.3 -4.9H221.5Q221.8 -4.9 221.9 -4.9Q222.1 -5 222.2 -5.2Q222.3 -5.3 222.3 -5.5Q222.3 -5.9 222.1 -6Q221.9 -6.2 221.4 -6.2H220.3ZM238.7 -4.9H239.9Q240.2 -4.9 240.3 -4.9Q240.5 -5 240.6 -5.2Q240.7 -5.3 240.7 -5.5Q240.7 -5.9 240.5 -6Q240.3 -6.2 239.9 -6.2H238.7ZM231.3 -2.9 231 -3.7Q230.9 -4 230.8 -4.3Q230.7 -4.6 230.6 -4.8Q230.6 -5 230.5 -5.2Q230.5 -5 230.4 -4.8Q230.3 -4.6 230.2 -4.3Q230.1 -4.1 230 -3.7L229.7 -2.9ZM111.3 -2.9 111 -3.7Q110.9 -4 110.8 -4.3Q110.7 -4.6 110.7 -4.8Q110.6 -5 110.5 -5.2Q110.5 -5 110.4 -4.8Q110.4 -4.6 110.3 -4.3Q110.2 -4.1 110 -3.7L109.8 -2.9ZM14 -2.9 13.8 -3.7Q13.6 -4 13.5 -4.3Q13.5 -4.6 13.4 -4.8Q13.3 -5 13.3 -5.2Q13.2 -5 13.2 -4.8Q13.1 -4.6 13 -4.3Q12.9 -4.1 12.8 -3.7L12.5 -2.9Z"/></svg>
