<svg xmlns="http://www.w3.org/2000/svg" viewBox="-7 -97 294 149" role="img" aria-label="Ẩm Thực An Tâm"><path fill="#000" d="M117.8 -39.2 115.4 -40Q114.6 -40.4 114.3 -41Q114.1 -41.5 114.1 -42.4Q114.1 -43.5 114.8 -44.1Q115.6 -44.8 116.7 -44.8H119.1Q119.6 -44.8 120.1 -45.1Q120.6 -45.5 121.4 -46.5L130.6 -54.2Q131.6 -55.4 132.6 -56Q133.6 -56.7 134.6 -56.7Q135.8 -56.7 136.5 -56Q137.1 -55.2 137.1 -53.8V-44.8H147.6Q148.6 -44.8 149.2 -44.3Q149.9 -43.8 149.9 -42.8Q149.9 -41.5 148.6 -40.5Q147.4 -39.5 144.6 -39.5H137.1V-16.6Q137.1 -12.9 138.4 -11.1Q139.6 -9.3 142.1 -9.3Q143.1 -9.3 144 -9.8Q144.9 -10.2 145.7 -10.9Q146.4 -11.6 147 -12.5Q147.7 -13.4 148.3 -14.4Q148.6 -14.5 148.9 -14.4Q150.1 -17.9 153.5 -20.2Q158.8 -23.9 169.6 -23.9Q171.7 -23.9 173.1 -23.5V-38.1Q173.1 -39.8 172.3 -40.9Q171.5 -41.9 170.1 -41.9Q168.8 -41.9 167.9 -41.1Q167.1 -40.3 167.1 -39V-35.2Q167.1 -31.5 164.6 -29.1Q162.1 -26.8 157.7 -26.8Q154.1 -26.8 152.3 -28.5Q150.4 -30.1 150.4 -33.3Q150.4 -36.3 152.9 -39.2Q155.4 -42.1 160.5 -43.9Q165.5 -45.8 173 -45.8Q182.6 -45.8 187.2 -42.2Q191.7 -38.5 191.7 -32V-9.9Q191.7 -8.9 192.1 -8.3Q192.6 -7.8 193.4 -7.8Q194 -7.8 194.5 -8.1Q195.1 -8.4 195.3 -9.4Q195.4 -9.6 195.7 -9.7Q195.9 -9.8 196.1 -9.8Q196.6 -9.8 197 -9.2Q197.3 -8.8 197.3 -8Q197.3 -6.2 196 -4.1Q194.6 -2 191.9 -0.5Q189.2 1 185.1 1Q180 1 177.2 -1.1Q175.3 -2.6 174.7 -4.5Q172.9 -2.2 169.9 -0.8Q166 1 161.5 1Q155.5 1 151.9 -2.2Q149.1 -4.6 148.5 -8Q148 -6.7 147.2 -5.5Q145.3 -2.5 142 -0.7Q138.7 1 134.2 1Q126.6 1 122.8 -2.7Q118.9 -6.3 118.9 -14.1V-36.8Q118.9 -37.8 118.8 -38.4Q118.6 -38.9 117.8 -39.2ZM218.1 -43.5V-37Q222.9 -41.5 226.9 -43.5Q231.5 -45.8 235.3 -45.8Q240.4 -45.8 243.5 -42.4Q245.4 -40.4 246.1 -37Q250 -41.3 253.6 -43.4Q257.7 -45.8 261.9 -45.8Q266.9 -45.8 269.7 -42.8Q272.5 -39.8 273.1 -33.8L275.9 -8Q276 -6.4 276.3 -5.8Q276.5 -5.2 277 -4.9L277.8 -4.5Q278.4 -4.1 278.8 -3.6Q279.1 -3 279.1 -2.2Q279.1 -1.2 278.5 -0.6Q277.9 0 276.8 0H255.8Q253.8 0 253.8 -2.2Q253.8 -3.4 254.9 -4.2L255.8 -4.7Q256.5 -5.1 256.9 -5.9Q257.2 -6.7 257 -8.3L255.1 -29Q254.8 -31.8 253.7 -33.4Q252.6 -35 250.6 -35Q249.4 -35 248.4 -34.4Q247.4 -33.8 246.5 -32.8L246.5 -32.8Q246.5 -32.7 246.5 -32.5V-7.9Q246.5 -6.3 246.7 -5.7Q246.9 -5 247.4 -4.7L248.4 -4.2Q249.4 -3.5 249.4 -2.2Q249.4 0 247.2 0H226.9Q224.9 0 224.9 -2.2Q224.9 -3.5 225.9 -4.2L226.9 -4.7Q227.6 -5.1 227.9 -5.9Q228.1 -6.7 228.1 -8.4V-29Q228.1 -31.8 226.9 -33.4Q225.7 -35 223.6 -35Q222.1 -35 220.7 -34.4Q219.4 -33.8 218.2 -32.7L218.1 -32.6V-8.2Q218.1 -6.6 218.4 -5.8Q218.7 -5.1 219.3 -4.7L220.6 -4.2Q221.6 -3.5 221.6 -2.2Q221.6 0 219.4 0H198.2Q197.1 0 196.5 -0.6Q195.9 -1.2 195.9 -2.2Q195.9 -3 196.3 -3.6Q196.6 -4.1 197.3 -4.6L198.4 -5Q199.1 -5.3 199.4 -6Q199.6 -6.6 199.6 -8.1V-33.2Q199.6 -34.5 199.3 -35Q199.1 -35.5 198.4 -35.8L197.1 -36Q196.4 -36.3 196.1 -36.8Q195.8 -37.2 195.8 -38Q195.8 -38.8 196.2 -39.4Q196.8 -40 197.9 -40.5L211.9 -44.9Q213.4 -45.5 214.3 -45.7Q215.1 -45.9 215.9 -45.9Q217.1 -45.9 217.6 -45.2Q218.1 -44.5 218.1 -43.5ZM71.2 -43.5V-37Q75.8 -41.3 79.4 -43.4Q83.7 -45.8 87.4 -45.8Q92.4 -45.8 94.9 -42.9Q97.4 -40 98 -34.3L100.8 -8.2Q100.9 -6.7 101.1 -6Q101.3 -5.3 101.9 -5L103.1 -4.6Q103.8 -4.1 104.1 -3.6Q104.5 -3 104.5 -2.2Q104.5 -1.2 103.9 -0.6Q103.2 0 102.2 0H80.6Q78.5 0 78.5 -2.2Q78.5 -3.5 79.6 -4.2L80.8 -4.8Q81.5 -5.1 81.8 -5.8Q82.2 -6.4 81.9 -8L79.9 -29.7Q79.6 -32.4 78.8 -33.7Q77.9 -35 76 -35Q74.8 -35 73.7 -34.4Q72.6 -33.8 71.3 -32.7L71.2 -32.6V-8.2Q71.2 -6.6 71.4 -5.8Q71.7 -5.1 72.3 -4.8L73.6 -4.2Q74.7 -3.5 74.7 -2.2Q74.7 0 72.6 0H51.2Q50.2 0 49.6 -0.6Q49 -1.2 49 -2.2Q49 -3 49.3 -3.6Q49.6 -4.1 50.3 -4.6L51.5 -5Q52.2 -5.3 52.4 -6Q52.7 -6.7 52.7 -8.2V-33.3Q52.7 -34.5 52.4 -35Q52.1 -35.5 51.5 -35.8L50.2 -36Q49.5 -36.3 49.1 -36.8Q48.8 -37.2 48.8 -38Q48.8 -38.8 49.3 -39.4Q49.8 -40 51 -40.5L64.9 -44.9Q66.6 -45.5 67.4 -45.7Q68.2 -45.9 69 -45.9Q70.1 -45.9 70.6 -45.2Q71.2 -44.5 71.2 -43.5ZM1.3 -10.2Q1.3 -16.6 6.6 -20.2Q11.9 -23.9 22.6 -23.9Q24.7 -23.9 26.2 -23.5V-38.1Q26.2 -39.8 25.4 -40.9Q24.5 -41.9 23.1 -41.9Q21.9 -41.9 21 -41.1Q20.1 -40.3 20.1 -39V-35.2Q20.1 -31.5 17.6 -29.1Q15.1 -26.8 10.8 -26.8Q7.2 -26.8 5.3 -28.5Q3.5 -30.1 3.5 -33.3Q3.5 -36.3 6 -39.2Q8.5 -42.1 13.5 -43.9Q18.5 -45.8 26 -45.8Q35.7 -45.8 40.2 -42.2Q44.8 -38.5 44.8 -32V-9.9Q44.8 -8.9 45.2 -8.3Q45.6 -7.8 46.5 -7.8Q47 -7.8 47.6 -8.1Q48.1 -8.4 48.3 -9.4Q48.5 -9.6 48.7 -9.7Q48.9 -9.8 49.2 -9.8Q49.7 -9.8 50 -9.2Q50.3 -8.8 50.3 -8Q50.3 -6.2 49 -4.1Q47.7 -2 45 -0.5Q42.3 1 38.1 1Q33 1 30.3 -1.1Q28.4 -2.6 27.8 -4.5Q25.9 -2.2 23 -0.8Q19 1 14.6 1Q8.6 1 4.9 -2.2Q1.3 -5.3 1.3 -10.2ZM26.2 -7.4V-20.2Q26.1 -20.2 26 -20.3Q25.1 -20.5 24 -20.5Q22 -20.5 20.8 -18.7Q19.6 -16.9 19.6 -13.4Q19.6 -10.1 20.9 -8.4Q22.1 -6.8 24.1 -6.8Q25.2 -6.8 26.2 -7.4ZM173.1 -20.2Q173 -20.2 172.9 -20.3Q172.1 -20.5 170.9 -20.5Q168.9 -20.5 167.8 -18.7Q166.6 -16.9 166.6 -13.4Q166.6 -10.1 167.8 -8.4Q169.1 -6.8 171.1 -6.8Q172.1 -6.8 173.1 -7.4Z"/><g transform="rotate(-10 173.1 -54.8)"><path d="M147.1,-57.4 C147.1,-77.1 199.1,-77.1 199.1,-57.4 Z" fill="#000" stroke="#fff" stroke-width="2.6" stroke-linejoin="round" paint-order="stroke"/><ellipse cx="160.1" cy="-62.6" rx="2.7" ry="1.8" fill="#fff"/><ellipse cx="171.8" cy="-67.8" rx="2.4" ry="1.5" fill="#fff"/><ellipse cx="183.5" cy="-62.6" rx="3.0" ry="2.0" fill="#fff"/><ellipse cx="176.8" cy="-60.0" rx="1.7" ry="1.1" fill="#fff"/></g><path transform="translate(4.3 -68.7)" fill="#000" d="M13.3 0V-17.2H18.5L19.9 -6.7L21.4 -17.2H26.7V0H23.5V-12.4L21.5 0H18.5L16.4 -12.4V0ZM49.2 0V-17.2H52.6V-11H54.2V-17.2H57.6V0H54.2V-7.8H52.6V0ZM0.3 0 2 -17.2H7.8L9.4 0H6.2L5.9 -2.8H3.8L3.6 0ZM65.9 0.2Q63.8 0.2 62.8 -1Q61.8 -2.3 61.8 -4.6V-17.2H65.1V-4.7Q65.1 -4.3 65.2 -3.9Q65.2 -3.5 65.4 -3.3Q65.6 -3 65.9 -3Q66.3 -3 66.5 -3.3Q66.7 -3.5 66.7 -3.9Q66.8 -4.3 66.8 -4.7V-17.2H68Q69.2 -17.2 69.2 -18.4V-18.6H71.9V-18.5Q71.9 -17.2 71.4 -16.5Q70.9 -15.7 70.1 -15.4V-4.6Q70.1 -2.3 69.1 -1Q68.1 0.2 65.9 0.2ZM79.3 0.2Q77.5 0.2 76.3 -1Q75.2 -2.2 75.2 -4.3V-12.2Q75.2 -14.7 76.2 -16Q77.2 -17.3 79.4 -17.3Q80.6 -17.3 81.6 -16.9Q82.6 -16.4 83.1 -15.6Q83.6 -14.7 83.6 -13.3V-10.3H80.2V-12.9Q80.2 -13.6 80 -13.9Q79.8 -14.2 79.4 -14.2Q78.9 -14.2 78.8 -13.8Q78.6 -13.5 78.6 -12.9V-4.3Q78.6 -3.6 78.8 -3.3Q79 -3 79.4 -3Q79.9 -3 80 -3.4Q80.2 -3.7 80.2 -4.3V-7.4H83.7V-4.2Q83.7 -1.9 82.5 -0.9Q81.4 0.2 79.3 0.2ZM40 0V-13.9H37.9V-17.2H45.4V-13.9H43.4V0ZM1.1 -18 3.4 -20.4H6.3L8.6 -18H5.8L4.8 -19.3L3.9 -18ZM64.2 4.1V1.2H67.7V4.1ZM4.1 -5.5H5.7L4.9 -14.3H4.7ZM8.5 -19.1 7.8 -19.9Q8.1 -20 8.3 -20.2Q8.5 -20.4 8.5 -20.7Q8.5 -21.2 7.9 -21.2Q7.7 -21.2 7.4 -21.2V-22.2Q7.9 -22.5 8.5 -22.5Q9.2 -22.5 9.7 -22.1Q10.1 -21.7 10.1 -21Q10.1 -20.2 9.6 -19.8Q9.2 -19.4 8.5 -19.1Z"/><path transform="translate(4.3 42) scale(1.2145)" fill="#000" d="M130.5 0V-14.6H134.6Q136.1 -14.6 136.9 -13.7Q137.7 -12.9 137.7 -11.2V-4.3Q137.7 -2.3 137 -1.1Q136.3 0 134.5 0ZM0.6 0V-14.6H4.6Q6.2 -14.6 6.9 -13.8Q7.7 -13.1 7.7 -11.3V-10.6Q7.7 -9.6 7.3 -9Q6.9 -8.3 6.2 -8.1Q7.1 -7.9 7.5 -7Q7.8 -6 7.8 -4.7Q7.8 -3.3 7.6 -2.2Q7.3 -1.2 6.6 -0.6Q5.9 0 4.6 0ZM197.9 0V-14.6H201.9Q203.5 -14.6 204.2 -13.8Q204.9 -13.1 204.9 -11.3V-10.6Q204.9 -9.6 204.6 -9Q204.2 -8.3 203.4 -8.1Q204.4 -7.9 204.8 -7Q205.1 -6 205.1 -4.7Q205.1 -3.3 204.8 -2.2Q204.6 -1.2 203.9 -0.6Q203.2 0 201.9 0ZM216.3 0V-14.6H220.3Q221.9 -14.6 222.6 -13.8Q223.4 -13.1 223.4 -11.3V-10.6Q223.4 -9.6 223 -9Q222.6 -8.3 221.9 -8.1Q222.8 -7.9 223.2 -7Q223.5 -6 223.5 -4.7Q223.5 -3.3 223.3 -2.2Q223 -1.2 222.3 -0.6Q221.6 0 220.3 0ZM54.3 0.1Q52.5 0.1 51.6 -0.9Q50.7 -2 50.7 -4V-10.9Q50.7 -12.8 51.6 -13.8Q52.5 -14.7 54.3 -14.7Q56.1 -14.7 57 -13.8Q57.9 -12.8 57.9 -10.9V-4Q57.9 -2 57 -0.9Q56 0.1 54.3 0.1ZM143.4 0.1Q141.7 0.1 140.8 -0.9Q139.8 -2 139.8 -4V-10.9Q139.8 -12.8 140.7 -13.8Q141.7 -14.7 143.4 -14.7Q145.2 -14.7 146.1 -13.8Q147 -12.8 147 -10.9V-4Q147 -2 146.1 -0.9Q145.2 0.1 143.4 0.1ZM19.1 0V-14.6H22.1L23.4 -7.6V-14.6H26.2V0H23.4L21.9 -7.3V0ZM149.2 0V-14.6H152.2L153.6 -7.6V-14.6H156.4V0H153.5L152.1 -7.3V0ZM60.1 0V-14.6H64.6Q65.7 -14.6 66.3 -14.1Q66.8 -13.6 67 -12.7Q67.2 -11.8 67.2 -10.5Q67.2 -9.3 66.9 -8.6Q66.6 -7.9 65.8 -7.6Q66.5 -7.5 66.8 -6.9Q67 -6.4 67 -5.5V0H64.2V-5.7Q64.2 -6.4 63.9 -6.5Q63.6 -6.7 63.1 -6.7V0ZM166.7 0V-14.6H171.2Q172.3 -14.6 172.9 -14.1Q173.5 -13.6 173.7 -12.7Q173.9 -11.8 173.9 -10.5Q173.9 -9.3 173.6 -8.6Q173.3 -7.9 172.4 -7.6Q173.1 -7.5 173.4 -6.9Q173.7 -6.4 173.7 -5.5V0H170.8V-5.7Q170.8 -6.4 170.5 -6.5Q170.3 -6.7 169.7 -6.7V0ZM28.6 0V-14.6H31.5V-9.4H32.8V-14.6H35.7V0H32.8V-6.6H31.5V0ZM9.4 0 10.8 -14.6H15.8L17.2 0H14.4L14.2 -2.4H12.4L12.2 0ZM97 0 98.4 -14.6H103.4L104.7 0H102L101.8 -2.4H100L99.8 0ZM206.7 0 208.1 -14.6H213L214.4 0H211.7L211.5 -2.4H209.7L209.5 0ZM180.9 0V-14.6H183.7V-8.8L185.1 -14.6H188L186.4 -7.9L188.4 0H185.4L183.8 -7.1V0ZM110.1 0.1Q108.1 0.1 107.2 -0.9Q106.4 -1.9 106.4 -4V-5.5H109.3V-3.6Q109.3 -3.1 109.4 -2.8Q109.6 -2.6 109.9 -2.6Q110.3 -2.6 110.5 -2.8Q110.6 -3 110.6 -3.6Q110.6 -4.2 110.5 -4.7Q110.4 -5.1 110.1 -5.5Q109.7 -6 109.1 -6.5L107.8 -7.7Q106.4 -9.1 106.4 -10.9Q106.4 -12.8 107.2 -13.8Q108.1 -14.7 109.7 -14.7Q111.7 -14.7 112.6 -13.7Q113.4 -12.6 113.4 -10.4H110.5V-11.4Q110.5 -11.7 110.3 -11.9Q110.1 -12.1 109.8 -12.1Q109.5 -12.1 109.3 -11.9Q109.2 -11.7 109.2 -11.4Q109.2 -11 109.3 -10.7Q109.5 -10.3 110 -9.9L111.7 -8.3Q112.2 -7.8 112.6 -7.2Q113 -6.7 113.3 -6Q113.5 -5.3 113.5 -4.3Q113.5 -2.2 112.8 -1Q112 0.1 110.1 0.1ZM158.7 0V-14.6H164.6V-11.8H161.7V-8.9H164.4V-6.2H161.7V-2.8H164.8V0ZM189.9 0V-14.6H195.8V-11.8H192.9V-8.9H195.6V-6.2H192.9V-2.8H195.9V0ZM44.3 0V-11.8H42.6V-14.6H49V-11.8H47.2V0ZM70.5 0V-11.8H68.7V-14.6H75.1V-11.8H73.4V0ZM81.8 0V-14.6H84.8V-2.5H87.8V0ZM89.6 0V-14.6H92.5V-2.5H95.5V0ZM76.8 0V-14.6H79.7V0ZM54.3 -2.6Q55 -2.6 55 -3.8V-11Q55 -12.1 54.3 -12.1Q53.6 -12.1 53.6 -10.9V-3.8Q53.6 -3.1 53.8 -2.9Q53.9 -2.6 54.3 -2.6ZM143.5 -2.6Q144.1 -2.6 144.1 -3.8V-11Q144.1 -12.1 143.5 -12.1Q142.7 -12.1 142.7 -10.9V-3.8Q142.7 -3.1 142.9 -2.9Q143.1 -2.6 143.5 -2.6ZM133.5 -2.6H134Q134.8 -2.6 134.8 -3.4V-10.9Q134.8 -11.6 134.6 -11.8Q134.4 -12.1 133.8 -12.1H133.5ZM11.3 -15V-16.9L15.2 -18.7V-15.8ZM120.6 -6V-8.5H123.2V-6ZM3.8 -2.6Q4.9 -2.6 4.9 -3.7V-5.5Q4.9 -6.1 4.7 -6.5Q4.6 -6.8 4 -6.8H3.5V-2.6Q3.7 -2.6 3.8 -2.6ZM201.1 -2.6Q202.2 -2.6 202.2 -3.7V-5.5Q202.2 -6.1 202 -6.5Q201.8 -6.8 201.3 -6.8H200.8V-2.6Q201 -2.6 201.1 -2.6ZM219.5 -2.6Q220.6 -2.6 220.6 -3.7V-5.5Q220.6 -6.1 220.4 -6.5Q220.3 -6.8 219.7 -6.8H219.2V-2.6Q219.4 -2.6 219.5 -2.6ZM12.6 -4.7H14L13.3 -12.1H13.2ZM100.2 -4.7H101.5L100.9 -12.1H100.8ZM209.9 -4.7H211.2L210.6 -12.1H210.5ZM3.5 -9.1H4.1Q4.5 -9.1 4.6 -9.4Q4.7 -9.7 4.7 -10.2V-11.6Q4.7 -12.4 4.1 -12.4H3.5ZM200.8 -9.1H201.4Q201.8 -9.1 201.9 -9.4Q202 -9.7 202 -10.2V-11.6Q202 -12.4 201.4 -12.4H200.8ZM219.2 -9.1H219.8Q220.2 -9.1 220.3 -9.4Q220.4 -9.7 220.4 -10.2V-11.6Q220.4 -12.4 219.8 -12.4H219.2ZM63.1 -9.2H63.8Q64.4 -9.2 64.4 -10.5Q64.4 -11.4 64.2 -11.6Q64.1 -11.9 63.8 -11.9H63.1ZM169.7 -9.2H170.4Q171 -9.2 171 -10.5Q171 -11.4 170.9 -11.6Q170.8 -11.9 170.4 -11.9H169.7Z"/></svg>
